<svg xmlns="http://www.w3.org/2000/svg" viewBox="0 0 22 22"><path d="M6.91 2.277c-2.08.032-4.196.535-5.555.291-.102-.018-.165.104-.091.176C2.41 3.832 2.844 4.932 4.117 5.08l.037.008c-.588.606-1.09 1.4-1.443 2.422-.38 1.096-.487 2.286-.613 3.66-.19 2.046-.402 4.363-1.557 7.268a19.152 19.152 0 0 0-1.031 3.57H1.27c.196-.963.478-1.94.874-2.936 1.247-3.137 1.482-5.692 1.671-7.746.116-1.263.218-2.355.528-3.252.905-2.605 3.062-3.177 4.744-2.851 1.632.316 3.238 1.593 3.154 3.42-.06 1.242-.603 1.8-1 2.209-.217.224-.425.436-.523.738-.236.714.008 1.51.66 2.142 1.728 1.611 2.668 4.64 2.617 8.276h1.723c.046-4.113-1.084-7.602-3.147-9.528-.163-.157-.209-.28-.248-.26.095-.12.25-.26.36-.374 2.283-1.693 6.046-.147 8.318.75.589.232.876-.337.316-.67-1.95-1.153-5.947-4.197-8.187-6.194-.313-.275-.528-.606-.89-.912-1.208-2.132-3.251-2.574-5.33-2.543zM9.648 6.96a1.178 1.178 0 0 0-.156.018 1.178 1.178 0 0 0-.117 2.287 1.177 1.177 0 0 0 .736-2.237 1.178 1.178 0 0 0-.463-.068zM6.207 18.395a.158.158 0 0 0-.088.029c-.084.06-.15.237-.06.443.418.963.707 1.977.974 3.14H8.78c-.441-1.292-1.267-2.646-2.164-3.417-.156-.135-.304-.2-.408-.195z"/></svg>