<svg xmlns="http://www.w3.org/2000/svg" width="377.953" height="841.608"><path d="M35.303 7.867c19.306 18.314 26.629 36.83 48.056 39.321l.606.118c-9.897 10.2-18.347 23.6-24.289 40.785-6.396 18.449-8.214 38.463-10.335 61.59-3.198 34.44-6.75 73.458-26.192 122.356-41.845 105.338-18.852 195.763 5.589 291.49 11.177 43.831 22.69 89.162 27.639 136.461a14.425 14.425 0 0 0 10.655 12.523 14.476 14.476 0 0 0 15.52-5.437c3.82-5.268 8.82-13.415 14.475-23.97 14.14 55.935 22.809 103.184 30.013 146.394a14.577 14.577 0 0 0 25.535 6.9c48.478-58.29 63.34-145.365 36.762-213.335 7.726-40.953 23.6-74.905 40.365-110.808 9.022-19.358 18.179-39.018 26.09-60.025 3.838-1.414 9.578-5.286 13.298-7.423l28.733-16.513-4.31 17.708a14.543 14.543 0 0 0 28.246 6.867l11.446-48.107 21.63-49.656a14.526 14.526 0 1 0-26.613-11.564l-19.39 44.926-40.113 23.094a319.313 319.313 0 0 0 8.551-50.177c7.272-81.807-12.085-152.739-51.608-189.636-2.744-2.643-3.501-4.73-4.158-4.376 1.6-2.02 4.191-4.377 6.026-6.296 38.429-28.497 101.787-2.474 140.03 12.625 9.914 3.905 14.745-5.673 5.32-11.278-32.824-19.408-100.12-70.63-137.826-104.244-5.268-4.629-8.87-10.217-14.98-15.368C179.422-28.98 82.584 13.136 36.85 4.922c-1.717-.303-2.794 1.734-1.548 2.945m184.82 99.296c-1.01 20.906-10.15 30.298-16.832 37.166-3.652 3.77-7.17 7.339-8.82 12.422-3.972 12.019.135 25.417 11.11 36.072 33.227 30.972 49.235 93.034 42.72 165.97-4.898 55.345-24.373 97.005-44.96 141.14-17.354 37.15-35.28 75.561-43.377 122.188a14.358 14.358 0 0 0 .943 8.08c17.17 40.97 19.105 104.31-11.311 159.235a1625.788 1625.788 0 0 0-33.16-146.628c33.059-75.545 70.747-197.783 49.134-297.398-5.471-25.198-21.95-55.143-40.18-70.814-3.5-3.03-6.766-3.99-8.332-2.811-1.414 1.01-2.542 4.006-1.043 7.474 9.257 21.31 14.795 43.747 20.636 71.976 18.937 91.619-16.092 210.238-47.72 282.483l-1.953 4.36-7.692 16.53c-5.992-33.901-14.308-66.49-22.387-98.303-23.23-90.996-45.112-176.994-6.75-273.596 20.99-52.803 24.963-95.81 28.144-130.385 1.952-21.26 3.636-39.64 8.854-54.74C102.38 53.737 138.688 44.092 167 49.58c27.471 5.319 54.538 26.814 53.124 57.567zm-48.275 10.436a19.812 19.812 0 1 0 12.389-37.638 19.829 19.829 0 1 0-12.389 37.655z" style="stroke-width:16.8325"/></svg>
