<?xml version="1.0" encoding="UTF-8" standalone="no"?>
<svg
   viewBox="0 0 589.53468 151.91176"
   width="137.10109"
   height="164.0647"
   version="1.1"
   id="svg4"
   sodipodi:docname="back.svg"
   inkscape:version="1.1.2 (0a00cf5339, 2022-02-04)"
   xmlns:inkscape="http://www.inkscape.org/namespaces/inkscape"
   xmlns:sodipodi="http://sodipodi.sourceforge.net/DTD/sodipodi-0.dtd"
   xmlns="http://www.w3.org/2000/svg"
   xmlns:svg="http://www.w3.org/2000/svg">
  <defs
     id="defs8" />
  <sodipodi:namedview
     id="namedview6"
     pagecolor="#ffffff"
     bordercolor="#666666"
     borderopacity="1.0"
     inkscape:pageshadow="2"
     inkscape:pageopacity="0.0"
     inkscape:pagecheckerboard="0"
     showgrid="false"
     inkscape:zoom="2.4148148"
     inkscape:cx="96.694785"
     inkscape:cy="72.67638"
     inkscape:window-width="1600"
     inkscape:window-height="831"
     inkscape:window-x="0"
     inkscape:window-y="40"
     inkscape:window-maximized="1"
     inkscape:current-layer="svg4" />
  <path
     style="fill:#000000;stroke-width:0.048px"
     d="m 511.65655,428.68562 c -1.189,-0.135 -1.85,-0.27 -2.656,-0.544 -0.767,-0.26 -1.11,-0.414 -2.432,-1.093 -16.564,-8.512 -31.638,-20.112 -44.834,-34.503 -10.61,-11.57 -19.815,-24.93 -26.807,-38.904 -8.774,-17.538 -14.149,-35.89 -15.835,-54.072 -0.211,-2.28 -0.46,-6.092 -0.46,-7.061 v -0.39 l -0.32,-0.474 c -1.565,-2.318 -4.264,-6.06 -6.299,-8.73 -5.442,-7.146 -10.778,-13.368 -17.929,-20.905 -1.758,-1.853 -8.388,-8.482 -10.468,-10.467 -7.208,-6.876 -11.833,-11.075 -25.032,-22.724 -12.216,-10.782 -18.066,-16.06 -24.023,-21.673 -3.655,-3.444 -8.504,-8.177 -11.1,-10.834 l -1.593,-1.631 -1.334,-0.03 c -1.725,-0.037 -2.84,-0.147 -6.398,-0.63 -2.78,-0.376 -3.48,-0.46 -7.128,-0.864 l -12.188,-1.348 c -4.909,-0.542 -8.956,-0.98 -8.994,-0.973 -0.044,0.01 1.432,1.992 4.03,5.415 2.255,2.97 4.188,5.53 4.294,5.688 a 11.75,11.75 0 0 1 1.145,2.255 c 0.169,0.45 0.436,1.477 0.53,2.04 0.106,0.63 0.144,2.005 0.076,2.712 a 10.933,10.933 0 0 1 -8.183,9.552 10.914,10.914 0 0 1 -6.612,-0.378 11.278,11.278 0 0 1 -2.999,-1.727 c -1.033,-0.833 -0.795,-0.526 -12.68,-16.356 l -11.123,-14.813 -9.624,-8.943 c -5.293,-4.919 -11.914,-11.07 -14.712,-13.668 a 2842.448,2842.448 0 0 1 -5.746,-5.346 c -1.054,-0.993 -1.728,-1.892 -2.34,-3.123 a 9.399,9.399 0 0 1 -0.794,-2.126 c -0.258,-1.005 -0.331,-1.6 -0.332,-2.688 0,-1.04 0.07,-1.659 0.292,-2.568 1.045,-4.289 4.492,-7.464 8.92,-8.215 0.751,-0.128 2.348,-0.153 3.096,-0.048 2.272,0.316 4.306,1.263 5.958,2.773 0.227,0.208 2.582,2.41 5.232,4.891 15.933,14.925 22.037,20.615 22.11,20.615 0.076,0 18.146,2.009 29.772,3.31 2.547,0.285 4.636,0.515 4.641,0.51 0.005,-0.003 -0.197,-0.276 -0.45,-0.605 -8.132,-10.585 -15.151,-21.476 -21.53,-33.407 a 308.8,308.8 0 0 1 -7.057,-14.136 c -12.403,-26.692996 -19.56,-53.285996 -20.89,-77.615996 -0.162,-2.962 -0.192,-4.223 -0.193,-8.04 0,-4.473 0.077,-6.7 0.361,-10.392 0.929,-12.049 3.477,-22.9179998 7.707,-32.8719998 0.504,-1.184 0.803,-2.07 1.142,-3.378 0.285,-1.0970002 0.36,-1.2940002 0.522,-1.3530002 0.101,-0.038 0.1,-0.041 -0.038,-0.113 -0.7,-0.361 -1.875,-0.851 -4.735,-1.974 -1.278,-0.502 -1.774,-0.633 -3.544,-0.936 -2.608,-0.447 -4.863,-0.632 -7.698,-0.631 -2.364,0 -4.32,0.125 -6.462,0.413 -15.89,2.132 -33.08,11.5830002 -53.112,29.2 -5.931,5.216 -10.63,9.688 -20.784,19.781 -1.61,1.601 -3.069,3.019 -3.24,3.151 -1.002,0.773 -2.023,1.274 -3.024,1.485 -0.58,0.122 -1.48,0.111 -1.992,-0.025 -1.08,-0.286 -1.902,-0.942 -2.374,-1.896 -0.32,-0.646 -0.401,-1.032 -0.405,-1.924 -0.004,-0.863 0.06,-1.257 0.335,-2.046 0.39,-1.119 0.67,-1.594 2.214,-3.762 6.816,-9.565 15.824,-23.9529998 25.919,-41.4 13.875,-23.98 27.523,-49.75 36.577,-69.072 1.412,-3.012 1.693,-3.733 3.095,-7.944 1.31,-3.931 1.912,-5.53 2.803,-7.44 l 0.403,-0.864 0.121,-0.978 c 1.512,-12.198004 5.82,-22.355004 13.245,-31.230004 1.484,-1.773 4.293,-4.685 6.003,-6.221 9.599,-8.628 21.948,-15.33 40.248,-21.844 5.314,-1.892 9.173,-3.148 22.464,-7.312 7.245,-2.27 11.348,-3.62 15.192,-5.004 7.501,-2.7 12.846,-5.166 17.2,-7.936 0.411,-0.262 0.835,-0.5 0.942,-0.529 0.803,-0.217 1.609,0.4 1.609,1.23 0,0.233 -0.042,0.39 -0.219,0.816 -1.623,3.918 -3.03,7.876 -4.581,12.888 -2.249,7.267 -2.607,8.386 -3.358,10.488 -2.68,7.508 -5.686,12.093 -10.266,15.662 a 36.23,36.23 0 0 1 -2.623,1.789 c -0.238,0.141 -0.516,0.317 -0.619,0.39 l -0.187,0.135 0.187,0.077 c 10.51,4.368 20.17,11.335 28.846,20.806 5.676,6.196 10.877,13.568 17,24.093004 2.125,3.655 3.282,5.722 7.753,13.848 6.895,12.535 9.627,17.359 13.21,23.328 9.229,15.372 18.372,28.041 28.995,40.176 4.19,4.7880002 7.33,8.1250002 13.27,14.1120002 3.934,3.964 5.396,5.483 7.897,8.209 21.331,23.2419998 37.15,49.1099998 48.753,79.7269998 6.108,16.117996 11.162,33.774996 15.633,54.623996 2.43,11.333 4.595,22.975 7.302,39.264 1.018,6.128 1.394,8.443 3.096,19.032 3.04,18.922 4.527,27.795 6.243,37.263 4.607,25.422 9.28,45.256 15.07,63.945 0.327,1.056 0.637,2.104 0.688,2.328 0.475,2.067 0.31,4.356 -0.456,6.3 -1.014,2.579 -2.895,4.622 -5.401,5.867 -2.56,1.271 -5.49,1.477 -8.234,0.576 -0.822,-0.27 -1.609,-0.65 -2.678,-1.292 -4.001,-2.407 -9.327,-6.16 -14.966,-10.548 -0.844,-0.657 -1.54,-1.188 -1.547,-1.18 -0.027,0.029 1.537,9.32 2.333,13.861 5.18,29.547 11.018,56.724 19.935,92.808 0.437,1.77 0.83,3.421 0.872,3.672 0.122,0.712 0.146,2.288 0.048,3.065 a 10.969,10.969 0 0 1 -7.542,9.078 c -1.05,0.336 -1.926,0.477 -3.117,0.503 -0.475,0.01 -0.94,0.01 -1.032,-10e-4 z m -16.35,-35.637 a 1213.589,1213.589 0 0 1 -20.036,-105.623 752.426,752.426 0 0 0 -0.503,-3.466 c -0.022,-0.126 -0.226,-0.341 -1.093,-1.151 -5.273,-4.93 -8.586,-8.133 -13.815,-13.357 -5.978,-5.972 -10.377,-10.535 -15.55,-16.13 -33.521,-36.255 -59.413,-73.584 -75.511,-108.864 -7.831,-17.162 -13.333,-33.722 -16.569,-49.871996 -0.785,-3.917 -1.329,-8.231 -1.588,-12.6 -0.253,-4.25 -0.252,-9.08 0.002,-13.488 0.723,-12.55 3.377,-24.489 7.437,-33.456 1.265,-2.793 2.241,-4.254 3.453,-5.171 1.292,-0.977 2.378,-0.923 3.523,0.173 0.81,0.777 1.348,1.96 1.49,3.284 0.03,0.272 0.054,1.19 0.054,2.04 0,9.078 1.045,20.08 3.072,32.362 1.135,6.875 3.48,19.013 4.782,24.744 4.137,18.216996 11.448,37.191996 22.063,57.263996 15.139,28.627 36.899,58.888 63.249,87.96 11.659,12.864 25.133,26.32 35.715,35.67 l 5.087,4.496 a 427.135,427.135 0 0 0 3.295,2.899 c 0.004,-0.005 -0.087,-0.408 -0.203,-0.897 -2.045,-8.593 -4.246,-19.053 -6.232,-29.616 -2.188,-11.633 -4.254,-23.794 -7.856,-46.248 -3.448,-21.496 -5.383,-32.67 -7.706,-44.52 -4.368,-22.269 -9.349,-41.015 -15.273,-57.48 -10.745,-29.857996 -25.357,-54.615996 -45.174,-76.535996 -2.75,-3.041 -4.564,-4.936 -9.123,-9.528 -4.926,-4.96 -8.11,-8.3359998 -11.956,-12.6719998 -12.945,-14.5950002 -24.059,-30.1080002 -35.098,-48.9900002 -3.057,-5.23 -4.97,-8.638 -10.63,-18.93 -7.536,-13.7 -10.16,-18.194 -13.889,-23.784 -4.912,-7.363 -9.457,-12.578004 -15.03,-17.245004 -11.536,-9.663 -24.9,-13.82 -38.749,-12.053 -9.997,1.275 -19.832,5.599 -28.008,12.313 -1.591,1.306 -2.812,2.43 -4.489,4.128 -2.65,2.685004 -4.662,5.147004 -6.72,8.225004 -5.45,8.148 -8.21,17.078 -7.895,25.536 0.24,6.458 1.986,12.077 5.666,18.24 1.824,3.057 3.826,5.634 6.173,7.946 3.447,3.396 7.097,5.738 12.474,8.004 0.501,0.21 1.645,0.686 2.543,1.057 2.118,0.874 2.94,1.242 4.12,1.847 2.866,1.467 4.637,2.964 6.498,5.49 2.15,2.917 3.58,6.48 4.113,10.24 0.21,1.478 0.243,2.006 0.242,3.768 -0.002,2.1850002 -0.124,3.4750002 -0.53,5.5920002 -0.5,2.613 -1.154,4.663 -2.55,7.992 -3.137,7.4739998 -5.155,16.2969998 -5.891,25.7519998 -0.41,5.269 -0.426,11.118 -0.047,16.92 1.603,24.489 10.262,52.352 24.796,79.786996 4.057,7.658 7.817,13.969 12.207,20.485 11.104,16.484 24.238,31.291 43.49,49.033 5.315,4.898 9.112,8.294 21.144,18.91 14.416,12.72 21.28,19.049 29.16,26.88 5.86,5.824 10.311,10.545 15.052,15.961 7.227,8.256 13.883,16.928 19.534,25.447 1.278,1.926 1.755,2.977 2.087,4.601 0.154,0.755 0.204,1.442 0.264,3.674 0.6,22.374 8.701,47.179 22.348,68.43 7.88,12.273 17.496,23.202 28.459,32.35 1.62,1.352 4.383,3.547 4.419,3.511 0.008,-0.008 -0.125,-0.608 -0.296,-1.334 z m -226.29,-449.547996 c -4.174,-0.295 -7.961,-2.232 -10.558,-5.4 a 14.794,14.794 0 0 1 -2.657,-13.89 15.143,15.143 0 0 1 3.395,-5.722 c 2.643,-2.78 5.827,-4.424 9.436,-4.872 0.772,-0.096 2.95,-0.08 3.672,0.026 3.465,0.512 6.334,1.946 8.666,4.334 1.076,1.102 1.7,1.94 2.443,3.276 1.637,2.949 2.184,6.549 1.515,9.978 -0.651,3.342 -2.461,6.351 -5.184,8.622 -2.447,2.04 -4.982,3.165 -8.016,3.558 -0.564,0.073 -2.189,0.127 -2.712,0.09 z m -106.776,315.980996 c -5.66,-0.224 -11.54,-1.744 -17.04,-4.404 -4.723,-2.285 -8.744,-5.431 -12.119,-9.484 -3.133,-3.761 -5.869,-8.815 -7.264,-13.416 -1.03,-3.397 -1.484,-6.45 -1.487,-10.008 -0.002,-2.17 0.124,-3.813 0.445,-5.784 0.568,-3.49 1.597,-6.63 3.24,-9.888 a 31.599,31.599 0 0 1 2.159,-3.72 c 2.54,-3.836 5.628,-7.118 9.246,-9.826 2.753,-2.06 5.707,-3.752 8.996,-5.15 5.463,-2.323 11.126,-3.402 16.85,-3.211 4.672,0.155 8.923,1.175 13.438,3.224 1.964,0.892 2.884,1.254 3.752,1.477 0.89,0.23 1.585,0.186 3.494,-0.217 1.96,-0.415 3.293,-0.295 4.7,0.42 0.86,0.439 1.664,1.119 2.453,2.075 2.002,2.427 3.43,5.263 4.245,8.431 0.341,1.327 0.549,2.539 0.706,4.121 0.106,1.072 0.122,3.748 0.026,4.536 -0.348,2.857 -1.342,5.007 -3.094,6.693 -1.566,1.506 -3.425,2.392 -5.6,2.669 -0.86,0.11 -2.321,0.078 -3.122,-0.066 -1.625,-0.294 -2.791,-0.91 -3.89,-2.054 -0.82,-0.855 -1.427,-1.738 -2.38,-3.46 -2.072,-3.746 -3.218,-5.456 -4.623,-6.897 -1.334,-1.368 -2.868,-2.475 -4.755,-3.431 -2.43,-1.231 -4.65,-1.816 -7.248,-1.91 -3.21,-0.114 -5.86,0.85 -7.872,2.865 -1.72,1.722 -2.848,3.96 -3.405,6.759 -0.615,3.089 -0.466,7.356 0.388,11.168 1.001,4.467 3.062,8.742 5.808,12.048 0.534,0.643 1.862,1.969 2.504,2.5 3.912,3.23 8.74,4.623 14.529,4.192 3.701,-0.276 7.981,-1.636 10.632,-3.379 0.723,-0.475 1.147,-0.81 1.915,-1.512 1.375,-1.256 2.341,-1.825 3.3,-1.941 0.3,-0.037 0.926,0.033 1.337,0.149 1.74,0.49 3.269,2.452 3.677,4.719 0.158,0.88 0.136,2.22 -0.057,3.36 -0.454,2.687 -2.029,6.186 -3.875,8.612 -0.723,0.95 -1.799,2.071 -2.457,2.56 -0.791,0.588 -2.096,1.028 -4.806,1.62 -1.344,0.294 -2.622,0.766 -4.842,1.789 -2.52,1.161 -4.207,1.804 -6.277,2.391 a 37.415,37.415 0 0 1 -11.627,1.38 z m 54.024,-0.404 c -7.837,-0.35 -12.366,-1.95 -13.726,-4.851 -0.341,-0.728 -0.41,-1.058 -0.41,-1.96 0,-0.697 0.013,-0.836 0.112,-1.153 0.404,-1.292 1.51,-2.528 3.224,-3.603 1.017,-0.639 1.657,-1.22 2.135,-1.938 0.628,-0.943 0.84,-1.705 1.078,-3.867 0.435,-3.949 0.641,-9.197 0.72,-18.298 0.088,-10.088 -0.115,-15.756 -0.693,-19.36 -0.398,-2.474 -0.805,-3.491 -1.839,-4.591 -0.486,-0.518 -1.064,-0.978 -2.1,-1.674 -2.45,-1.644 -3.28,-2.528 -3.626,-3.86 -0.144,-0.555 -0.176,-1.545 -0.07,-2.112 0.508,-2.69 3.098,-4.166 9.603,-5.473 4.574,-0.92 8.315,-1.327 12.84,-1.399 4.19,-0.067 8.093,0.25 11.87,0.966 2.87,0.544 4.853,1.386 6.136,2.607 0.666,0.634 1.05,1.18 1.338,1.906 0.536,1.349 0.49,3.096 -0.109,4.152 -0.23,0.406 -0.716,0.858 -1.405,1.309 a 30.728,30.728 0 0 1 -2.473,1.405 c -1.227,0.617 -2.005,1.563 -2.594,3.153 -0.67,1.808 -0.98,4.818 -1.147,11.101 -0.061,2.29 -0.061,12.466 0,15.912 0.159,9.008 0.516,14.095 1.108,15.774 0.495,1.404 1.002,1.867 3.413,3.117 1.258,0.652 1.921,1.136 2.46,1.794 0.694,0.848 1.042,1.731 1.112,2.818 0.096,1.504 -0.441,2.892 -1.54,3.977 -1.26,1.245 -3.01,2.046 -5.881,2.693 -3.626,0.817 -7.574,1.276 -12.552,1.459 -1.48,0.054 -5.731,0.052 -6.984,-0.004 z m 360.168,-482.284 c -4.682,-0.23 -7.865,-1.672 -9.882,-4.475 -1.65,-2.294 -2.483,-4.57 -4.253,-11.607 -0.498,-1.982 -0.895,-3.075 -1.46,-4.018 -0.814,-1.358 -1.859,-2.001 -3.563,-2.193 -0.955,-0.107 -1.578,0.122 -1.744,0.642 -0.231,0.721 -0.332,2.839 -0.25,5.254 0.081,2.377 0.209,3.762 0.46,5.005 0.224,1.1 0.423,1.383 1.39,1.968 1.554,0.942 2.068,1.426 2.499,2.36 0.495,1.074 0.395,2.48 -0.247,3.448 -1.015,1.531 -3.16,2.342 -7.166,2.708 -1.818,0.167 -2.683,0.196 -5.832,0.196 -3.167,0 -3.725,-0.02 -5.448,-0.196 -5.858,-0.597 -8.789,-2.38 -8.79,-5.348 0,-0.606 0.067,-0.939 0.282,-1.384 0.18,-0.373 0.81,-0.99 1.525,-1.492 1.628,-1.145 2.002,-1.51 2.443,-2.39 0.575,-1.146 0.883,-3.478 0.989,-7.502 0.08,-3.017 0.118,-17.205 0.051,-18.816 -0.154,-3.715 -0.44,-4.834 -1.488,-5.819 -0.31,-0.291 -0.506,-0.42 -1.137,-0.75 -1.689,-0.883 -2.222,-1.371 -2.575,-2.358 -0.15,-0.423 -0.171,-1.346 -0.041,-1.89 0.464,-1.94 2.538,-3.312 5.597,-3.7 1.881,-0.24 3.439,-0.219 7.632,0.1 3.477,0.264 6.545,0.21 12.456,-0.222 1.069,-0.078 2.333,-0.169 2.808,-0.202 1.123,-0.08 4.423,-0.08 5.184,-10e-4 3.326,0.343 5.665,0.978 8.082,2.192 4.245,2.134 6.58,5.13 7.211,9.252 0.127,0.83 0.174,2.484 0.094,3.333 -0.155,1.652 -0.522,2.97 -1.227,4.41 -1.066,2.175 -2.582,3.752 -4.728,4.918 -0.982,0.534 -1.182,0.735 -1.142,1.151 0.047,0.481 0.422,0.771 1.62,1.251 1.438,0.577 2.32,1.05 3.252,1.743 2.79,2.076 4.184,5.218 5.054,11.384 0.187,1.327 0.437,2.262 0.728,2.722 0.258,0.407 0.859,0.727 2.237,1.191 0.456,0.154 0.924,0.335 1.041,0.404 0.53,0.31 1.071,1.033 1.303,1.738 0.123,0.376 0.139,0.492 0.137,1.001 -0.002,0.678 -0.107,1.117 -0.411,1.72 -0.279,0.553 -0.537,0.912 -1.001,1.394 a 6.26,6.26 0 0 1 -1.85,1.347 c -1.48,0.73 -3.329,1.194 -5.64,1.418 -1.16,0.113 -3.13,0.166 -4.2,0.113 z m -18.887,-30.978 c 0.821,-0.1 1.604,-0.347 2.208,-0.697 0.176,-0.102 0.488,-0.36 0.719,-0.593 0.33,-0.333 0.455,-0.505 0.654,-0.893 0.581,-1.132 0.804,-2.311 0.803,-4.248 0,-1.15 -0.047,-1.702 -0.216,-2.587 -0.33,-1.728 -1.095,-2.927 -2.22,-3.48 -0.574,-0.282 -0.97,-0.37 -1.787,-0.4 -1.702,-0.06 -2.18,0.327 -2.367,1.916 -0.097,0.822 -0.445,8.694 -0.422,9.543 0.038,1.385 0.133,1.479 1.5,1.485 0.397,0.002 0.904,-0.019 1.128,-0.046 z m -453.17,30.548 c -4.424002,-0.174 -8.428002,-1.198 -12.287002,-3.141 -3.97,-2 -7.103,-4.754 -9.548,-8.398 -2.648,-3.944 -4.088,-8.155 -4.423,-12.932 -0.074,-1.058 -0.033,-3.822 0.072,-4.804 0.52,-4.858 2.136,-9.022 4.974,-12.816 3.22,-4.305 7.663,-7.386 13.279,-9.208 4.308002,-1.397 9.733002,-1.817 14.390002,-1.112 7.756,1.174 14.264,5.493 18.478,12.264 2.412,3.877 3.877,8.052 4.274,12.18 0.432,4.485 -0.379,8.974 -2.326,12.876 -1.289,2.585 -2.83,4.709 -4.967,6.842 -2.128,2.124 -4.282,3.657 -7.06,5.02 a 31.566,31.566 0 0 1 -10.2,3.015 c -1.409,0.17 -3.424,0.263 -4.655,0.214 z m 5.287,-11.753 c 2.397,-0.42 4.125,-2.513 4.535,-5.491 0.154,-1.123 0.076,-3.5 -0.176,-5.395 -0.536,-4.013 -1.831,-8.378 -3.48,-11.724 -0.962,-1.952 -1.87,-3.33 -2.898,-4.404 -1.71,-1.785 -3.72,-2.698 -5.475,-2.488 -1.189,0.143 -2.113,0.587 -2.944002,1.415 -0.99,0.986 -1.703,2.364 -2.01,3.881 -0.1,0.494 -0.11,0.665 -0.108,2.004 0.002,1.51 0.049,2.13 0.265,3.504 0.667,4.242 2.415,9.429 4.470002,13.272 1.017,1.9 1.498,2.603 2.362,3.456 1.399,1.381 2.805,2.028 4.427,2.037 0.355,0.002 0.805,-0.027 1.032,-0.067 z m 53.418,11.73 c -5.176,-0.227 -10.366,-1.893 -14.568,-4.674 -4.064,-2.69 -7.273,-6.593 -9.28,-11.288 -1.55,-3.623 -2.254,-7.77 -2.023,-11.922 0.213,-3.825 1.064,-7.116 2.67,-10.32 a 25.324,25.324 0 0 1 7.362,-8.838 c 2.747,-2.065 6.217,-3.72 9.79,-4.67 3.92,-1.04 8.86,-1.296 12.96,-0.67 4.254,0.65 8.09,2.227 11.569,4.756 1.88,1.367 3.886,3.36 5.397,5.366 2.645,3.508 4.52,7.617 5.355,11.736 0.344,1.694 0.479,3.063 0.48,4.875 0,2.266 -0.207,3.99 -0.729,6.045 -1.512,5.967 -5.685,11.56 -11.203,15.014 -3.836,2.402 -8.63,4.006 -13.364,4.473 a 29.357,29.357 0 0 1 -4.416,0.118 z m 6.096,-11.817 c 1.097,-0.287 1.966,-0.876 2.711,-1.834 0.725,-0.932 1.169,-1.994 1.395,-3.337 0.238,-1.42 0.095,-4.338 -0.34,-6.896 -1.06,-6.245 -3.634,-12.338 -6.355,-15.04 -1.357,-1.349 -2.858,-2.147 -4.354,-2.315 -0.408,-0.046 -0.578,-0.042 -1.056,0.025 -1.566,0.22 -2.707,0.979 -3.69,2.455 -1.045,1.57 -1.413,3.173 -1.281,5.583 0.18,3.293 1.025,6.992 2.508,10.983 1.008,2.71 2.452,5.665 3.552,7.267 1.062,1.548 2.648,2.725 4.198,3.115 0.558,0.14 0.596,0.144 1.464,0.128 0.66,-0.011 0.868,-0.034 1.248,-0.134 z m 219.096,11.817 c -3.96,-0.183 -8.23,-1.335 -12.061,-3.254 -4.983,-2.496 -8.836,-6.386 -11.537,-11.646 -2.5,-4.87 -3.34,-9.977 -2.515,-15.297 0.99,-6.38 4.742,-12.423 10.322,-16.624 2.145,-1.614 4.745,-3.035 7.452,-4.073 4.46,-1.71 9.438,-2.243 13.931,-1.494 2.14,0.357 4.124,0.978 6.355,1.99 0.997,0.452 1.799,0.776 2.34,0.946 0.545,0.171 1.125,0.17 2.009,-0.004 1.259,-0.248 1.373,-0.264 1.904,-0.266 0.95,-0.003 1.698,0.215 2.452,0.716 0.58,0.385 0.896,0.684 1.442,1.363 1.844,2.295 2.967,5.044 3.348,8.191 0.124,1.02 0.149,3.091 0.048,3.889 -0.33,2.604 -1.544,4.526 -3.601,5.705 -1.393,0.799 -3.163,1.09 -4.835,0.797 -1.615,-0.283 -2.741,-1.113 -3.839,-2.83 -0.118,-0.186 -0.449,-0.758 -0.735,-1.273 -1.596,-2.87 -2.497,-4.133 -3.68,-5.165 a 12.996,12.996 0 0 0 -6.208,-3.007 c -0.496,-0.09 -0.747,-0.105 -1.8,-0.105 -1.33,0 -1.696,0.047 -2.573,0.338 -2.406,0.796 -4.182,2.988 -4.838,5.971 -0.24,1.086 -0.29,1.64 -0.29,3.192 -0.002,1.454 0.04,2.077 0.213,3.264 0.34,2.323 1.108,4.691 2.172,6.696 2.455,4.627 5.867,7.168 10.476,7.802 0.783,0.107 2.627,0.146 3.49,0.073 2.179,-0.183 4.499,-0.828 6.323,-1.755 0.978,-0.498 1.566,-0.905 2.355,-1.632 1.128,-1.04 1.993,-1.47 2.797,-1.393 0.752,0.073 1.32,0.35 1.913,0.936 1.141,1.127 1.599,2.611 1.384,4.489 -0.233,2.034 -1.29,4.526 -2.782,6.563 -0.446,0.608 -1.505,1.688 -1.913,1.95 -0.576,0.37 -1.636,0.718 -3.162,1.039 -0.998,0.21 -1.88,0.534 -3.567,1.31 -3.605,1.659 -6.629,2.424 -10.278,2.601 -1.077,0.052 -1.32,0.052 -2.512,-0.003 z m -364.656002,-0.165 c -2.244,-0.362 -3.557,-1.502 -4.778,-4.15 -0.177,-0.384 -3.38,-8.516 -7.117,-18.073 a 8628.868,8628.868 0 0 0 -7.0419997,-17.976 c -0.343,-0.833 -0.643,-1.447 -0.796,-1.629 -0.167,-0.199 -0.674,-0.538 -1.443,-0.969 -0.86,-0.48 -1.106,-0.656 -1.47399996,-1.054 -0.374,-0.404 -0.694,-1.006 -0.853,-1.604 -0.141,-0.53 -0.153,-1.666 -0.023,-2.16 a 4.126,4.126 0 0 1 1.04999996,-1.849 c 1.567,-1.587 4.52,-2.461 9.2279997,-2.734 1.105,-0.064 4.983,-0.064 6.264,0 2.502,0.124 4.395,0.368 5.795,0.746 1.646,0.445 2.767,1.316 3.245,2.524 0.236,0.596 0.29,0.917 0.29,1.745 0,1.158 -0.049,1.295 -0.917,2.608 -0.569,0.86 -0.645,1.063 -0.673,1.784 -0.025,0.644 0.054,1.1 0.396,2.28 0.42,1.45 1.12,3.261 2.627,6.792 1.425,3.34 1.964,4.523 2.12,4.652 0.12,0.1 0.402,0.143 0.591,0.091 0.232,-0.064 0.68,-0.496 0.984,-0.95 0.303,-0.453 0.872,-1.62 1.157,-2.377 0.754,-2.004 1.76,-4.894 1.76,-5.056 0,-0.237 -0.07,-0.434 -0.718,-2 -0.541,-1.308 -0.824,-1.89 -1.156,-2.379 -0.432,-0.638 -0.995,-1.165 -1.533,-1.437 -0.854,-0.43 -1.804,-1.227 -2.232,-1.872 -1.009,-1.517 -0.811,-3.371 0.486,-4.557 1.638,-1.497 4.896,-2.334 10.098,-2.595 2.073,-0.103 6.234,-0.054 8.208,0.099 2.75,0.212 5.337,0.7 6.46,1.219 1.217,0.562 2.164,1.646 2.396,2.742 0.101,0.48 0.091,1.129 -0.025,1.584 -0.175,0.685 -0.464,1.048 -1.77,2.234 -0.949,0.861 -1.173,1.13 -1.258,1.507 -0.097,0.433 0.069,1.207 0.506,2.37 0.298,0.79 0.406,1.033 1.705,3.821 1.348,2.893 2.32,4.896 2.748,5.656 0.376,0.668 0.768,1.088 1.104,1.181 0.603,0.167 1.04,-0.179 1.572,-1.245 0.46,-0.92 0.734,-1.659 2.166,-5.844 1.29,-3.775 1.457,-4.383 1.459,-5.34 0,-0.52 -0.007,-0.566 -0.139,-0.804 -0.208,-0.375 -0.438,-0.53 -1.169,-0.786 -1.269,-0.444 -2.234,-1.142 -2.74,-1.98 -0.63,-1.043 -0.67,-2.604 -0.094,-3.686 1.04,-1.958 4.1,-2.824 9.975,-2.824 2.459,0 3.926,0.167 5.328,0.606 1.967,0.614 3.161,1.675 3.559,3.162 0.142,0.534 0.143,1.519 0.002,2.047 -0.26,0.965 -0.84,1.721 -2.341,3.047 -1.05,0.927 -1.469,1.464 -1.908,2.442 -0.386,0.862 -0.776,1.883 -4.3,11.25 -3.11,8.261 -3.893,10.273 -6.375,16.374 -2.376,5.841 -2.874,7.015 -3.614,8.52 -1.378,2.8 -2.125,3.756 -3.423,4.372 -1.366,0.649 -3.784,0.655 -5.4,0.014 -1.263,-0.501 -2.336,-1.6 -3.104,-3.18 -0.143,-0.293 -1.97,-4.594 -4.06,-9.556 -2.089,-4.963 -3.902,-9.229 -4.028,-9.48 -0.265,-0.529 -0.354,-0.624 -0.614,-0.66 -0.413,-0.055 -0.765,0.268 -1.18,1.083 -0.561,1.103 -0.817,1.718 -4.158,10.015 -2.955,7.338 -2.981,7.4 -3.567,8.54 -1.211,2.359 -2.21,3.232 -4.16,3.636 -0.62,0.13 -2.458,0.166 -3.097,0.063 z m 327.876002,-0.076 c -0.19,-0.022 -0.759,-0.106 -1.262,-0.187 a 37.075,37.075 0 0 0 -3.31,-0.381 c -0.436,-0.03 -0.89,-0.066 -1.008,-0.081 -0.119,-0.015 -7.755,-0.042 -16.968,-0.06 l -16.752,-0.034 -0.417,-0.103 c -1.352,-0.335 -2.199,-0.984 -2.635,-2.023 -0.314,-0.746 -0.362,-1.816 -0.117,-2.58 0.252,-0.786 0.69,-1.152 2.356,-1.973 0.425,-0.21 0.878,-0.454 1.008,-0.543 0.731,-0.501 1.119,-1.238 1.43,-2.712 0.518,-2.455 0.854,-5.54 1.048,-9.622 0.08,-1.656 0.078,-8.627 0,-10.632 -0.198,-5.01 -0.55,-8.225 -1.133,-10.35 -0.388,-1.414 -0.777,-2.067 -1.396,-2.347 a 16,16 0 0 0 -1.131,-0.402 c -0.489,-0.157 -0.972,-0.347 -1.149,-0.45 a 3.074,3.074 0 0 1 -1.376,-1.677 c -0.11,-0.318 -0.132,-0.475 -0.15,-1.05 -0.017,-0.577 -0.005,-0.738 0.081,-1.08 0.32,-1.271 1.189,-2.26 2.377,-2.708 0.36,-0.135 1.187,-0.28 2.092,-0.364 0.43,-0.04 4.359,-0.067 13.92,-0.092 12.847,-0.035 14.343,-0.052 16.392,-0.192 1.77,-0.122 3.543,-0.433 5.429,-0.954 1.173,-0.325 1.679,-0.36 2.46,-0.17 0.423,0.102 1.107,0.438 1.502,0.738 0.962,0.73 2.051,2.287 2.71,3.874 0.639,1.537 0.976,3.103 1.074,4.992 0.123,2.364 -0.284,3.947 -1.334,5.19 -0.76,0.898 -2.118,1.378 -3.441,1.216 -1.466,-0.18 -1.962,-0.575 -3.447,-2.742 -0.81,-1.18 -1.423,-1.822 -2.313,-2.42 -1.512,-1.017 -3.822,-1.468 -7.968,-1.557 -3.058,-0.065 -4.402,0.078 -5.43,0.58 -0.589,0.286 -0.86,0.617 -1.072,1.31 -0.238,0.776 -0.25,0.998 -0.277,4.995 -0.025,3.928 -0.013,4.259 0.182,4.891 0.183,0.59 0.406,0.715 1.56,0.866 0.91,0.12 2.843,0.126 3.333,0.01 0.5,-0.117 0.826,-0.315 1.031,-0.624 0.311,-0.468 0.414,-0.884 0.652,-2.627 0.271,-1.982 0.531,-2.687 1.253,-3.393 0.437,-0.428 0.644,-0.583 1.024,-0.764 0.487,-0.232 0.833,-0.307 1.416,-0.307 0.62,0 0.94,0.076 1.518,0.36 0.762,0.373 1.411,1.067 1.842,1.968 0.656,1.368 1.246,4.163 1.437,6.801 0.064,0.885 0.066,3.39 0.002,4.311 -0.141,2.064 -0.461,3.855 -0.969,5.424 -0.86,2.66 -1.705,3.75 -3.24,4.185 -0.482,0.137 -1.459,0.15 -1.922,0.026 -1.151,-0.309 -1.586,-0.997 -1.909,-3.02 -0.068,-0.43 -0.166,-0.972 -0.217,-1.203 -0.339,-1.549 -1.23,-2.515 -2.676,-2.903 -0.42,-0.113 -0.556,-0.126 -1.354,-0.129 -0.805,-0.003 -0.915,0.006 -1.17,0.102 -0.718,0.272 -1,0.739 -1.214,2.006 -0.076,0.455 -0.088,0.798 -0.086,2.472 0.002,2.022 0.068,3.283 0.265,5.064 0.262,2.36 0.411,2.932 0.855,3.284 0.797,0.631 2.245,0.842 5.79,0.843 2.417,0 3.578,-0.082 5.088,-0.362 2.324,-0.43 3.726,-1.103 5.04,-2.42 0.868,-0.868 1.452,-1.728 2.324,-3.424 1.155,-2.242 1.717,-2.977 2.617,-3.42 0.579,-0.284 1.038,-0.385 1.755,-0.387 0.716,-0.001 0.996,0.063 1.623,0.37 0.363,0.178 0.524,0.295 0.843,0.612 1.438,1.426 1.894,3.403 1.42,6.152 -0.549,3.192 -2.377,7.637 -4.15,10.09 -0.415,0.574 -1.065,1.235 -1.417,1.441 -0.538,0.315 -1.322,0.415 -2.339,0.296 z m 170.868,-0.02 a 39.42,39.42 0 0 1 -1.27,-0.187 35.084,35.084 0 0 0 -3.194,-0.363 22.41,22.41 0 0 1 -0.984,-0.08 c -0.106,-0.015 -7.73,-0.042 -16.944,-0.06 -15.877,-0.031 -16.771,-0.037 -17.112,-0.12 -0.96,-0.229 -1.498,-0.507 -2.04,-1.056 -0.416,-0.42 -0.621,-0.757 -0.793,-1.3 -0.145,-0.456 -0.185,-1.479 -0.078,-1.98 0.203,-0.957 0.656,-1.372 2.5,-2.289 0.874,-0.435 0.987,-0.505 1.302,-0.816 0.565,-0.557 0.82,-1.164 1.126,-2.681 0.408,-2.023 0.71,-4.529 0.884,-7.355 0.151,-2.44 0.183,-4.16 0.156,-8.352 -0.025,-3.847 -0.048,-4.752 -0.178,-7.008 -0.293,-5.09 -0.96,-8.526 -1.858,-9.576 -0.224,-0.26 -0.544,-0.415 -1.55,-0.745 -0.952,-0.313 -1.244,-0.447 -1.661,-0.76 -0.911,-0.686 -1.333,-1.963 -1.097,-3.32 0.256,-1.466 1.385,-2.687 2.819,-3.046 0.493,-0.123 1.433,-0.228 2.58,-0.287 0.572,-0.03 5.214,-0.05 11.952,-0.05 10.659,-0.002 14.693,-0.037 16.72,-0.145 2.222,-0.118 3.87,-0.385 6.2,-1.005 1.02,-0.272 1.5,-0.33 2.037,-0.246 1.379,0.215 2.428,1.01 3.536,2.676 1.217,1.831 1.944,4.062 2.134,6.544 0.07,0.912 0.034,2.264 -0.076,2.88 -0.347,1.95 -1.394,3.365 -2.824,3.818 -0.565,0.18 -1.216,0.24 -1.833,0.17 -1.448,-0.162 -1.983,-0.577 -3.382,-2.62 -0.593,-0.867 -0.73,-1.04 -1.198,-1.53 a 8.487,8.487 0 0 0 -1.325,-1.095 c -1.604,-1.026 -4.325,-1.478 -8.933,-1.482 -1.844,-0.001 -2.542,0.054 -3.424,0.272 -1.555,0.385 -2.059,1.042 -2.206,2.879 -0.075,0.944 -0.118,6.959 -0.054,7.625 0.093,0.971 0.264,1.45 0.572,1.606 0.456,0.231 1.488,0.353 3.032,0.36 0.926,0.004 1.186,-0.01 1.452,-0.078 1.066,-0.274 1.372,-0.783 1.62,-2.7 0.219,-1.697 0.392,-2.497 0.653,-3.03 0.394,-0.803 1.245,-1.557 2.083,-1.846 0.435,-0.15 1.29,-0.184 1.797,-0.07 1.032,0.229 2,1.046 2.558,2.161 0.487,0.97 1.01,3.02 1.28,5.016 0.447,3.294 0.32,7.1 -0.337,10.031 -0.366,1.631 -1.012,3.353 -1.58,4.207 -0.857,1.287 -2.251,1.894 -3.748,1.633 -1.404,-0.245 -1.866,-0.939 -2.228,-3.343 -0.206,-1.368 -0.471,-2.091 -0.998,-2.719 -0.311,-0.37 -0.863,-0.768 -1.285,-0.927 -0.7,-0.264 -0.952,-0.304 -1.915,-0.31 -0.857,-0.003 -0.93,0.003 -1.198,0.111 -0.72,0.29 -1.026,0.844 -1.2,2.18 -0.239,1.824 -0.038,6.211 0.412,9.033 0.142,0.885 0.238,1.166 0.503,1.46 0.621,0.69 1.93,0.94 5.25,0.997 4.691,0.08 7.834,-0.522 9.717,-1.864 0.235,-0.167 0.652,-0.519 0.927,-0.78 0.952,-0.91 1.56,-1.78 2.461,-3.53 0.8,-1.551 1.04,-1.949 1.573,-2.607 0.664,-0.82 1.618,-1.243 2.817,-1.245 0.645,-0.002 1.063,0.09 1.586,0.345 1.06,0.519 1.949,1.745 2.31,3.186 0.152,0.606 0.207,1.882 0.117,2.728 -0.233,2.202 -1.244,5.363 -2.579,8.064 -1.004,2.033 -2.06,3.563 -2.907,4.215 -0.207,0.159 -0.71,0.37 -1.02,0.427 -0.361,0.067 -1.015,0.059 -1.657,-0.02 z m -253.68,-0.027 c -2.36,-0.12 -4.372,-0.382 -5.913,-0.769 -1.034,-0.26 -1.626,-0.468 -2.367,-0.835 -1.646,-0.814 -2.459,-1.867 -2.55,-3.305 -0.05,-0.759 0.199,-1.58 0.628,-2.08 0.314,-0.366 1.209,-0.953 2.408,-1.58 1.034,-0.542 1.369,-0.813 1.624,-1.315 0.2,-0.394 0.267,-0.947 0.369,-3.072 0.078,-1.628 0.116,-25.501 0.043,-26.64 -0.058,-0.887 -0.149,-1.585 -0.262,-2.004 -0.203,-0.755 -0.812,-1.205 -2.233,-1.653 a 31.92,31.92 0 0 1 -1.011,-0.337 c -1.41,-0.51 -2.338,-1.282 -2.751,-2.294 -0.183,-0.445 -0.223,-0.674 -0.224,-1.276 -0.002,-1.012 0.27,-1.688 0.958,-2.372 0.584,-0.58 1.215,-0.923 2.16,-1.172 1.044,-0.273 1.321,-0.294 3.625,-0.268 1.161,0.013 4.455,0.022 7.32,0.02 4.49,-0.005 5.337,-0.017 6.144,-0.088 0.515,-0.045 2.47,-0.22 4.344,-0.389 4.525,-0.407 4.813,-0.424 6.736,-0.393 1.744,0.028 2.507,0.092 3.896,0.327 4.145,0.699 7.923,2.501 10.505,5.011 1.984,1.928 3.191,4.028 3.865,6.72 0.699,2.795 0.645,6.23 -0.14,8.96 -0.503,1.748 -1.466,3.603 -2.6,5.008 -1.82,2.259 -4.454,4.164 -7.382,5.34 -3.615,1.453 -7.097,1.821 -12.816,1.353 -1.666,-0.136 -2.516,-0.162 -2.663,-0.083 -0.258,0.139 -0.26,0.197 -0.099,3.9 0.15,3.445 0.18,3.848 0.338,4.466 0.238,0.93 0.751,1.45 2.256,2.282 1.37,0.758 2.025,1.3 2.479,2.053 0.247,0.411 0.353,0.807 0.353,1.324 0,1.398 -0.852,2.54 -2.538,3.405 -1.923,0.986 -4.68,1.552 -8.574,1.76 -1.006,0.054 -4.845,0.051 -5.928,-0.004 z m 15.912,-28.146 c 0.868,-0.196 1.65,-0.563 2.28,-1.07 1.086,-0.871 1.768,-2.152 2.063,-3.876 0.324,-1.89 0.21,-4.121 -0.292,-5.655 -0.326,-0.998 -0.78,-1.772 -1.445,-2.46 a 5.992,5.992 0 0 0 -3.302,-1.756 c -0.483,-0.087 -2.085,-0.086 -2.472,0 -0.423,0.096 -0.785,0.28 -0.892,0.457 -0.09,0.147 -0.092,0.314 -0.08,6.846 l 0.012,6.696 0.105,0.229 c 0.088,0.19 0.145,0.246 0.336,0.328 0.269,0.116 0.827,0.265 1.239,0.329 0.434,0.067 2.047,0.023 2.448,-0.068 z m 142.608,28.169 c -3.37,-0.142 -5.878,-0.446 -7.122,-0.863 -1.577,-0.53 -2.716,-1.738 -2.978,-3.16 -0.072,-0.393 -0.064,-1.14 0.016,-1.519 0.222,-1.046 0.957,-2.005 2.19,-2.856 0.785,-0.541 1.138,-0.91 1.408,-1.467 0.71,-1.467 1.113,-4.362 1.335,-9.594 0.078,-1.838 0.077,-9.558 -0.002,-11.64 -0.213,-5.631 -0.593,-8.756 -1.234,-10.143 -0.133,-0.288 -0.247,-0.44 -0.563,-0.749 a 5.365,5.365 0 0 0 -0.746,-0.604 c -1.266,-0.783 -1.732,-1.177 -2.131,-1.8 -0.475,-0.74 -0.632,-1.363 -0.6,-2.376 0.018,-0.616 0.038,-0.748 0.17,-1.152 0.2,-0.608 0.435,-0.996 0.895,-1.478 0.933,-0.98 2.377,-1.615 4.7,-2.071 2.482,-0.487 5.485,-0.721 9.245,-0.722 3.877,-10e-4 6.5,0.304 8.445,0.984 1.338,0.467 2.204,1.163 2.716,2.182 0.52,1.036 0.602,2.588 0.19,3.613 -0.232,0.579 -0.611,0.988 -2.084,2.253 -0.286,0.244 -0.395,0.38 -0.541,0.665 -0.65,1.27 -1.106,3.8 -1.03,5.71 0.036,0.866 0.124,1.36 0.308,1.726 0.174,0.345 0.337,0.461 0.628,0.448 0.76,-0.032 1.292,-0.518 3.55,-3.243 1.879,-2.265 2.834,-3.632 3.228,-4.615 0.262,-0.654 0.203,-0.985 -0.396,-2.236 -0.482,-1.007 -0.58,-1.367 -0.58,-2.112 0,-1.884 1.003,-3.265 2.96,-4.082 1.568,-0.654 3.804,-1.03 7.11,-1.198 1.243,-0.063 5.312,-0.063 6.51,0 1.928,0.101 3.554,0.29 4.674,0.545 2.483,0.564 3.861,1.784 4.156,3.682 0.072,0.46 0.03,1.513 -0.076,1.893 -0.341,1.233 -1.259,2.313 -2.314,2.722 -0.698,0.272 -1.354,0.35 -3.547,0.421 -1.483,0.05 -2.152,0.12 -2.73,0.293 -0.627,0.186 -1.316,0.62 -2.148,1.353 -0.532,0.468 -4.315,4.1 -4.878,4.682 -1.06,1.1 -1.639,2.155 -1.639,2.995 0,0.321 0.129,0.915 0.273,1.262 0.153,0.367 0.707,1.2 1.23,1.848 0.335,0.416 11.354,13.193 14.549,16.871 1.829,2.105 2.412,2.633 3.49,3.157 l 1.242,0.603 c 0.95,0.46 1.57,0.865 2.067,1.352 0.913,0.892 1.31,1.919 1.309,3.385 0,0.529 -0.023,0.764 -0.106,1.104 -0.414,1.697 -1.688,2.707 -3.918,3.105 l -0.624,0.111 h -16.032 l -0.403,-0.107 c -1.255,-0.335 -1.812,-0.865 -4.04,-3.839 a 99.437,99.437 0 0 0 -5.297,-6.491 c -2.822,-3.193 -4.803,-5.18 -5.534,-5.55 -0.523,-0.265 -1.072,-0.195 -1.442,0.184 -0.42,0.43 -0.655,1.217 -0.727,2.435 -0.092,1.561 0.12,3.092 0.548,3.936 0.274,0.543 0.5,0.767 1.36,1.358 1.01,0.695 1.367,0.994 1.716,1.44 0.653,0.835 0.94,1.787 0.837,2.783 -0.189,1.827 -1.672,3.137 -4.274,3.774 -1.413,0.345 -2.974,0.55 -5.592,0.73 -0.677,0.047 -6.897,0.096 -7.728,0.062 z m -201.216,-0.338 c -7.909,-0.27 -12.787,-0.371 -16.368,-0.337 -2.803,0.026 -3.165,0.04 -5.736,0.222 -2.108,0.15 -2.43,0.16 -3.12,0.1 -1.796,-0.153 -3.13,-0.72 -4.115,-1.746 -0.775,-0.808 -1.117,-1.672 -1.117,-2.822 0,-1.199 0.425,-2.103 1.273,-2.709 0.392,-0.28 1.078,-0.601 1.679,-0.789 1.24,-0.387 1.65,-0.604 1.93,-1.024 0.269,-0.4 0.526,-1.36 0.706,-2.624 0.247,-1.732 0.466,-6.734 0.701,-15.984 0.085,-3.332 0.119,-11.819 0.05,-12.627 -0.064,-0.758 -0.153,-1.328 -0.265,-1.703 -0.202,-0.676 -0.804,-1.17 -1.974,-1.62 -1.94,-0.746 -2.9,-1.978 -2.9,-3.725 0,-1.505 0.762,-2.62 2.328,-3.402 0.802,-0.401 1.779,-0.666 2.952,-0.8 0.782,-0.09 3.328,-0.1 5.328,-0.022 3.261,0.128 9.086,0.035 14.304,-0.23 1.907,-0.096 6.142,-0.11 7.584,-0.022 4.55,0.273 7.796,0.91 10.583,2.078 5.079,2.127 8.952,5.903 11.301,11.016 1.36,2.958 2.117,5.994 2.462,9.857 0.1,1.117 0.084,4.813 -0.024,5.808 -0.405,3.717 -1.371,7.155 -2.867,10.2 -1.117,2.273 -2.376,4.033 -4.175,5.834 -2.078,2.08 -4.369,3.624 -7.176,4.836 -3.155,1.363 -6.82,2.164 -10.272,2.246 -0.555,0.013 -1.084,0.03 -1.176,0.036 -0.093,0.007 -0.946,-0.014 -1.896,-0.047 z m -1.149,-8.468 c 3.694,-0.36 6.224,-2.429 7.65,-6.256 0.632,-1.694 1.056,-3.885 1.26,-6.509 0.082,-1.055 0.081,-4.963 -0.001,-6.168 -0.256,-3.75 -0.797,-6.556 -1.719,-8.925 -0.655,-1.682 -1.377,-2.868 -2.365,-3.884 a 8.059,8.059 0 0 0 -3.284,-2.09 c -1.183,-0.408 -2.147,-0.555 -3.632,-0.556 -0.986,0 -1.114,0.01 -1.464,0.11 -0.858,0.248 -1.19,0.678 -1.32,1.705 -0.07,0.57 -0.066,29.092 0.006,29.754 0.14,1.3 0.546,2.036 1.344,2.435 0.763,0.382 2.076,0.525 3.526,0.384 z"
     data-darkreader-inline-fill=""
     id="path2" />
</svg>
