<svg xmlns="http://www.w3.org/2000/svg" width="3779.528" height="4522.846" viewBox="0 0 16251.968 4187.82"><path d="M14105.066 11817.77c-32.777-3.722-51-7.444-73.219-14.997-21.144-7.168-30.6-11.413-67.044-30.131-456.627-234.654-872.179-554.437-1235.959-951.16-292.491-318.955-546.249-687.257-739.001-1072.484-241.876-483.478-390.051-989.396-436.53-1490.627-5.817-62.854-12.681-167.94-12.681-194.654v-10.75l-8.822-13.068c-43.143-63.902-117.547-167.059-173.647-240.664-150.022-196.997-297.122-368.522-494.257-576.298-48.464-51.082-231.236-233.827-288.576-288.548-198.706-189.554-326.206-305.31-690.068-626.443-336.764-297.232-498.034-442.733-662.253-597.469-100.76-94.942-234.434-225.419-305.999-298.666l-43.915-44.962-36.775-.827c-47.554-1.02-78.291-4.053-176.376-17.368-76.638-10.365-95.935-12.68-196.501-23.818l-335.992-37.16c-135.329-14.943-246.894-27.017-247.942-26.824-1.213.275 39.477 54.914 111.097 149.277 62.164 81.876 115.452 152.448 118.374 156.804a323.918 323.918 0 0 1 31.565 62.165c4.66 12.405 12.02 40.717 14.611 56.237 2.922 17.368 3.97 55.273 2.095 74.763a301.395 301.395 0 0 1-225.584 263.325 300.871 300.871 0 0 1-182.276-10.42 310.906 310.906 0 0 1-82.675-47.61c-28.477-22.964-21.916-14.5-349.555-450.893l-306.633-408.357-265.31-246.536c-145.914-135.604-328.438-305.17-405.572-376.79a78359.043 78359.043 0 0 1-158.402-147.377c-29.056-27.374-47.637-52.158-64.508-86.093a259.106 259.106 0 0 1-21.889-58.609c-7.112-27.705-9.124-44.107-9.152-74.1 0-28.67 1.93-45.735 8.05-70.794 28.808-118.237 123.833-205.764 245.901-226.467 20.704-3.528 64.729-4.217 85.35-1.323 62.632 8.711 118.705 34.818 164.246 76.445 6.258 5.734 71.18 66.437 144.233 134.832 439.232 411.444 607.504 568.303 609.516 568.303 2.095 0 500.24 55.383 820.738 91.248 70.215 7.857 127.803 14.197 127.941 14.06.138-.08-5.43-7.609-12.405-16.679-224.179-291.8-417.675-592.038-593.528-920.945a8512.828 8512.828 0 0 1-194.543-389.694c-341.92-735.858-539.22-1468.959-575.884-2139.675-4.466-81.655-5.293-116.417-5.32-221.642 0-123.31 2.122-184.702 9.951-286.481 25.61-332.16 95.852-631.79 212.463-906.197 13.894-32.64 22.136-57.065 31.482-93.123 7.856-30.242 9.924-35.672 14.39-37.299 2.784-1.047 2.757-1.13-1.048-3.115-19.297-9.952-51.689-23.46-130.532-54.418-35.23-13.839-48.904-17.45-97.699-25.803-71.896-12.323-134.06-17.423-212.214-17.395-65.17 0-119.091 3.446-178.14 11.385-438.048 58.774-911.932 319.314-1464.163 804.97-163.503 143.791-293.042 267.073-572.962 545.311-44.384 44.136-84.605 83.226-89.319 86.865-27.622 21.31-55.769 35.121-83.364 40.938-15.989 3.363-40.8 3.06-54.914-.69-29.773-7.884-52.433-25.968-65.445-52.267-8.822-17.809-11.055-28.45-11.165-53.04-.11-23.79 1.654-34.652 9.235-56.403 10.752-30.848 18.47-43.942 61.035-103.709 187.9-263.682 436.227-660.323 714.52-1141.292 382.499-661.067 758.74-1371.48 1008.335-1904.139 38.925-83.033 46.672-102.91 85.321-218.996 36.114-108.367 52.71-152.448 77.272-205.102l11.11-23.818 3.335-26.96c41.682-336.269 160.443-616.271 365.131-860.932 40.91-48.878 118.347-129.154 165.487-171.498 264.62-237.851 605.05-422.609 1109.535-602.183 146.494-52.158 252.876-86.782 619.275-201.573 199.726-62.578 312.836-99.794 418.805-137.948 206.783-74.432 354.131-142.413 474.16-218.775 11.33-7.223 23.019-13.784 25.969-14.583 22.136-5.982 44.356 11.027 44.356 33.908 0 6.423-1.158 10.751-6.037 22.495-44.743 108.01-83.53 217.121-126.287 355.29-62 200.332-71.868 231.18-92.572 289.127-73.88 206.976-156.748 333.373-283.007 431.761a998.769 998.769 0 0 1-72.31 49.318c-6.56 3.887-14.224 8.74-17.064 10.752l-5.155 3.721 5.155 2.123c289.734 120.414 556.036 312.477 795.211 573.568 156.473 170.808 299.851 374.035 468.647 664.183 58.58 100.759 90.476 157.74 213.73 381.754 190.078 345.558 265.392 478.543 364.166 643.093 254.42 423.767 506.469 773.02 799.318 1107.55 115.508 131.993 202.07 223.986 365.82 389.032 108.451 109.278 148.754 151.153 217.701 226.301 588.041 640.723 1024.13 1353.838 1343.995 2197.87 168.382 444.332 307.708 931.091 430.962 1505.844 66.989 312.422 126.673 633.363 201.298 1082.41 28.064 168.932 38.429 232.751 85.349 524.663 83.805 521.631 124.798 766.237 172.103 1027.245 127.004 700.82 255.826 1247.593 415.442 1762.801 9.014 29.111 17.56 58.002 18.966 64.177 13.095 56.982 8.546 120.084-12.571 173.675-27.953 71.096-79.807 127.417-148.891 161.738-70.573 35.038-151.346 40.717-226.991 15.88-22.66-7.444-44.356-17.92-73.825-35.618-110.298-66.355-257.122-169.816-412.575-290.782-23.267-18.11-42.454-32.75-42.647-32.529-.744.8 42.371 256.928 64.315 382.112 142.8 814.536 303.738 1563.736 549.557 2558.48 12.047 48.795 22.881 94.308 24.039 101.228 3.363 19.628 4.025 63.074 1.323 84.494a302.387 302.387 0 0 1-207.913 250.257c-28.946 9.263-53.095 13.15-85.928 13.867-13.095.275-25.914.275-28.45-.03zm-450.728-982.422a33455.554 33455.554 0 0 1-552.341-2911.756 20742.466 20742.466 0 0 0-13.866-95.549c-.607-3.474-6.231-9.4-30.132-31.73-145.363-135.908-236.694-224.206-380.844-368.219-164.798-164.632-286.067-290.423-428.674-444.663-924.088-999.458-1637.865-2028.523-2081.645-3001.102-215.881-473.113-367.557-929.63-456.766-1374.844-21.64-107.982-36.637-226.908-43.777-347.35-6.974-117.162-6.947-250.312.055-371.83 19.932-345.971 93.096-675.099 205.02-922.296 34.872-76.996 61.778-117.272 95.19-142.551 35.617-26.934 65.555-25.445 97.12 4.769 22.33 21.42 37.161 54.032 41.076 90.531.827 7.499 1.488 32.805 1.488 56.238 0 250.257 28.808 553.554 84.687 892.138 31.29 189.526 95.935 524.14 131.828 682.129 114.047 502.195 315.592 1025.288 608.221 1578.622 417.343 789.173 1017.211 1623.392 1743.613 2424.833 321.409 354.627 692.853 725.575 984.572 983.33l140.235 123.944a11775.023 11775.023 0 0 0 90.835 79.918c.11-.138-2.398-11.248-5.596-24.728-56.375-236.887-117.051-525.243-171.8-816.438-60.318-320.692-117.272-655.94-216.57-1274.939-95.053-592.59-148.396-900.629-212.435-1227.303-120.415-613.9-257.728-1130.679-421.038-1584.577-296.212-823.109-699.028-1505.624-1245.332-2109.902-75.81-83.833-125.818-136.073-251.498-262.663-135.797-136.734-223.572-229.802-329.596-349.334-356.861-402.347-663.245-830.001-967.562-1350.53-84.274-144.178-137.01-238.127-293.043-521.852-207.748-377.674-280.085-501.562-382.884-655.664-135.411-202.98-260.705-346.743-414.339-475.4-318.018-266.385-686.43-380.983-1068.21-332.271-275.592 35.148-546.718 154.35-772.11 339.438-43.86 36.003-77.52 66.989-123.75 113.798-73.054 74.019-128.52 141.89-185.253 226.743-150.243 224.62-226.33 470.797-217.645 703.962 6.616 178.03 54.749 332.932 156.197 502.83 50.283 84.274 105.473 155.315 170.174 219.051 95.025 93.62 195.646 158.182 343.876 220.65 13.811 5.79 45.349 18.911 70.104 29.139 58.388 24.094 81.048 34.239 113.578 50.917 79.008 40.441 127.83 81.71 179.133 151.345 59.27 80.415 98.692 178.637 113.385 282.291 5.79 40.745 6.699 55.3 6.671 103.874-.055 60.235-3.418 95.797-14.61 154.157-13.784 72.034-31.813 128.547-70.297 220.32-86.48 206.039-142.11 449.266-162.4 709.916-11.303 145.253-11.744 306.495-1.296 466.442 44.19 675.099 282.897 1443.211 683.563 2199.523 111.84 211.112 215.494 385.09 336.516 564.72 306.109 454.421 668.18 862.613 1198.908 1351.714 146.52 135.026 251.195 228.645 582.886 521.301 397.413 350.658 586.636 525.132 803.867 741.013 161.545 160.553 284.248 290.7 414.945 440.004 199.23 227.597 382.719 466.662 538.503 701.51 35.231 53.094 48.381 82.067 57.533 126.837 4.246 20.813 5.624 39.752 7.278 101.283 16.54 616.794 239.864 1300.604 616.077 1886.44 217.232 338.335 482.32 639.62 784.542 891.807 44.66 37.271 120.829 97.782 121.821 96.789.221-.22-3.446-16.761-8.16-36.775zM7416.1-1557.543c-115.066-8.133-219.464-61.53-291.057-148.864a407.833 407.833 0 0 1-73.247-382.912 417.454 417.454 0 0 1 93.592-157.741c72.86-76.638 160.635-121.959 260.126-134.309 21.282-2.646 81.324-2.205 101.228.717 95.521 14.114 174.612 53.646 238.9 119.477 29.662 30.38 46.864 53.481 67.347 90.311 45.128 81.297 60.207 180.54 41.765 275.068-17.947 92.13-67.844 175.081-142.91 237.687-67.458 56.237-137.341 87.25-220.98 98.085-15.549 2.012-60.346 3.5-74.764 2.48zm-2943.542 8710.79c-156.032-6.175-318.128-48.078-469.75-121.407-130.2-62.992-241.049-149.719-334.089-261.45-86.369-103.68-161.793-243.007-200.25-369.845-28.395-93.646-40.91-177.81-40.993-275.895-.055-59.82 3.419-105.115 12.268-159.45 15.658-96.21 44.025-182.772 89.318-272.587a871.104 871.104 0 0 1 59.518-102.55c70.022-105.75 155.15-196.226 254.889-270.879 75.893-56.789 157.327-103.433 247.997-141.972 150.6-64.039 306.715-93.784 464.511-88.519 128.795 4.273 245.985 32.392 370.452 88.877 54.142 24.591 79.504 34.57 103.433 40.718 24.535 6.34 43.694 5.127 96.32-5.983 54.033-11.44 90.78-8.132 129.567 11.58 23.708 12.101 45.873 30.847 67.623 57.201 55.19 66.906 94.557 145.088 117.024 232.421 9.4 36.582 15.135 69.994 19.463 113.606 2.922 29.552 3.363 103.323.717 125.046-9.594 78.76-36.996 138.03-85.294 184.51-43.17 41.515-94.419 65.94-154.378 73.576-23.708 3.033-63.984 2.151-86.065-1.819-44.798-8.105-76.941-25.087-107.238-56.624-22.605-23.57-39.339-47.912-65.61-95.383-57.12-103.268-88.712-150.408-127.445-190.133-36.775-37.712-79.063-68.229-131.083-94.584-66.989-33.935-128.189-50.062-199.809-52.654-88.491-3.142-161.545 23.433-217.01 78.981-47.417 47.471-78.513 109.167-93.868 186.33-16.954 85.154-12.846 202.785 10.696 307.872 27.595 123.144 84.412 240.995 160.112 332.132 14.721 17.726 51.33 54.281 69.029 68.92 107.844 89.042 240.94 127.443 400.527 115.562 102.028-7.609 220.016-45.1 293.098-93.15 19.93-13.095 31.62-22.33 52.791-41.683 37.905-34.624 64.536-50.31 90.973-53.508 8.27-1.02 25.527.91 36.857 4.108 47.968 13.508 90.118 67.595 101.366 130.09 4.356 24.26 3.75 61.2-1.571 92.627-12.516 74.074-55.935 170.532-106.824 237.411-19.931 26.19-49.594 57.092-67.733 70.573-21.806 16.21-57.782 28.34-132.49 44.66-37.05 8.104-72.281 21.116-133.481 49.317-69.47 32.006-115.976 49.732-173.041 65.914a1031.436 1031.436 0 0 1-320.527 38.043zm1489.304-11.137c-216.046-9.649-340.899-53.757-378.39-133.73-9.401-20.069-11.303-29.166-11.303-54.032 0-19.215.358-23.047 3.087-31.786 11.137-35.617 41.627-69.69 88.878-99.325 28.036-17.616 45.679-33.632 58.856-53.426 17.312-25.996 23.157-47.002 29.718-106.603 11.992-108.864 17.67-253.538 19.848-504.429 2.426-278.1-3.17-434.353-19.104-533.706-10.972-68.202-22.192-96.238-50.696-126.562-13.398-14.28-29.332-26.96-57.892-46.148-67.54-45.32-90.421-69.69-99.96-106.41-3.97-15.3-4.851-42.592-1.93-58.223 14.005-74.156 85.405-114.846 264.731-150.877 126.093-25.362 229.223-36.582 353.966-38.567 115.508-1.847 223.103 6.892 327.226 26.631 79.118 14.996 133.784 38.208 169.153 71.868 18.36 17.478 28.946 32.53 36.886 52.544 14.776 37.188 13.508 85.348-3.005 114.46-6.34 11.192-19.738 23.652-38.732 36.085a847.093 847.093 0 0 1-68.175 38.733c-33.825 17.01-55.272 43.088-71.51 86.92-18.47 49.842-27.016 132.82-31.62 306.026-1.681 63.13-1.681 343.656 0 438.653 4.384 248.328 14.225 388.564 30.545 434.85 13.646 38.704 27.623 51.468 94.088 85.927 34.68 17.974 52.957 31.317 67.816 49.456 19.132 23.377 28.725 47.72 30.655 77.685 2.646 41.462-12.157 79.725-42.454 109.636-34.735 34.321-82.978 56.403-162.124 74.24-99.96 22.522-208.796 35.175-346.027 40.22-40.8 1.49-157.989 1.433-192.53-.11zm9928.913-13295.34c-129.07-6.34-216.818-46.093-272.421-123.365-45.486-63.24-68.45-125.983-117.245-319.975-13.728-54.639-24.672-84.77-40.248-110.766-22.44-37.437-51.248-55.162-98.223-60.455-26.327-2.95-43.501 3.363-48.077 17.698-6.369 19.876-9.153 78.264-6.892 144.84 2.233 65.527 5.761 103.708 12.681 137.974 6.175 30.325 11.661 38.126 38.318 54.253 42.84 25.969 57.01 39.311 68.892 65.06 13.645 29.607 10.889 68.367-6.81 95.052-27.981 42.206-87.113 64.563-197.548 74.653-50.118 4.603-73.963 5.403-160.773 5.403-87.306 0-102.689-.552-150.188-5.403-161.49-16.458-242.29-65.61-242.318-147.431 0-16.706 1.847-25.886 7.774-38.153 4.962-10.283 22.33-27.292 42.041-41.131 44.88-31.565 55.19-41.627 67.347-65.886 15.851-31.593 24.342-95.88 27.264-206.811 2.206-83.171 3.253-474.298 1.406-518.71-4.245-102.413-12.13-133.26-41.02-160.414-8.546-8.023-13.949-11.579-31.344-20.676-46.562-24.342-61.255-37.795-70.987-65.004-4.135-11.661-4.714-37.106-1.13-52.103 12.791-53.48 69.966-91.303 154.295-102 51.855-6.615 94.805-6.036 210.395 2.758 95.852 7.277 180.429 5.789 343.38-6.12 29.47-2.15 64.315-4.66 77.409-5.569 30.959-2.205 121.931-2.205 142.91-.028 91.689 9.456 156.17 26.961 222.8 60.428 117.024 58.829 181.394 141.42 198.789 255.054 3.501 22.88 4.797 68.478 2.591 91.882-4.272 45.542-14.39 81.876-33.825 121.573-29.387 59.959-71.179 103.433-130.339 135.576-27.071 14.721-32.584 20.262-31.482 31.73 1.296 13.26 11.634 21.255 44.66 34.487 39.642 15.907 63.956 28.946 89.649 48.05 76.913 57.23 115.342 143.848 139.326 313.828 5.155 36.582 12.047 62.358 20.069 75.039 7.112 11.22 23.68 20.041 61.668 32.833 12.571 4.245 25.473 9.235 28.698 11.137 14.611 8.546 29.525 28.477 35.92 47.912 3.391 10.366 3.832 13.564 3.777 27.595-.06 18.691-2.95 30.793-11.33 47.416-7.691 15.245-14.804 25.142-27.595 38.43a172.572 172.572 0 0 1-51 37.133c-40.8 20.124-91.772 32.915-155.48 39.09-31.979 3.115-86.286 4.577-115.784 3.115zm-520.666-853.985c22.633-2.756 44.218-9.566 60.869-19.214 4.852-2.812 13.453-9.924 19.821-16.348 9.097-9.18 12.543-13.921 18.029-24.617 16.017-31.207 22.164-63.709 22.137-117.107 0-31.702-1.296-46.92-5.955-71.317-9.097-47.636-30.186-80.69-61.2-95.935-15.823-7.774-26.74-10.2-49.263-11.027-46.919-1.654-60.097 9.015-65.252 52.82-2.674 22.66-12.267 239.671-11.633 263.076 1.047 38.18 3.666 40.772 41.351 40.937 10.944.055 24.921-.523 31.096-1.268zm-12492.741 842.13c-121.959-4.796-232.339-33.025-338.722-86.589-109.442-55.134-195.811-131.055-263.214-231.51-72.998-108.727-112.695-224.814-121.93-356.503-2.04-29.167-.91-105.363 1.984-132.434 14.335-133.923 58.884-248.714 137.12-353.305 88.768-118.678 211.25-203.613 366.07-253.84 118.76-38.513 268.313-50.09 396.695-30.656 213.813 32.364 393.222 151.428 509.391 338.087 66.493 106.88 106.88 221.974 117.823 335.772 11.91 123.64-10.448 247.39-64.122 354.958-35.534 71.262-78.015 129.816-136.927 188.617-58.664 58.553-118.044 100.814-194.626 138.388a870.194 870.194 0 0 1-281.188 83.116c-38.843 4.687-94.391 7.25-128.327 5.9zm145.749-324c66.079-11.578 113.716-69.276 125.018-151.372 4.246-30.959 2.095-96.486-4.852-148.727-14.776-110.628-50.476-230.96-95.934-323.2-26.52-53.812-51.552-91.8-79.89-121.408-47.141-49.207-102.552-74.376-150.933-68.587-32.777 3.942-58.25 16.182-81.158 39.008-27.292 27.181-46.948 65.17-55.41 106.989-2.758 13.618-3.033 18.332-2.978 55.245.055 41.627 1.35 58.719 7.305 96.596 18.388 116.942 66.576 259.934 123.227 365.876 28.036 52.378 41.296 71.758 65.114 95.273 38.567 38.07 77.327 55.906 122.041 56.155 9.787.055 22.192-.745 28.45-1.847zm1472.598 323.367c-142.69-6.258-285.764-52.185-401.603-128.85-112.034-74.157-200.498-181.753-255.826-311.182-42.73-99.877-62.137-214.199-55.769-328.659 5.872-105.445 29.332-196.17 73.605-284.496a698.118 698.118 0 0 1 202.952-243.641c75.728-56.927 171.387-102.551 269.885-128.74 108.065-28.67 244.248-35.728 357.274-18.47 117.272 17.918 223.021 61.392 318.928 131.11 51.827 37.685 107.127 92.627 148.782 147.927 72.916 96.707 124.605 209.982 147.624 323.532 9.483 46.7 13.204 84.44 13.232 134.391 0 62.468-5.707 109.994-20.097 166.646-41.682 164.494-156.72 318.68-308.838 413.897-105.749 66.217-237.907 110.435-368.411 123.31a809.298 809.298 0 0 1-121.738 3.252zm168.051-325.765c30.241-7.912 54.198-24.149 74.735-50.558 19.987-25.693 32.227-54.97 38.457-91.993 6.561-39.146 2.619-119.588-9.373-190.105-29.221-172.159-100.18-340.127-175.191-414.615-37.41-37.188-78.788-59.187-120.029-63.818-11.247-1.268-15.934-1.158-29.111.689-43.17 6.065-74.625 26.988-101.724 67.678-28.808 43.28-38.953 87.472-35.314 153.91 4.962 90.779 28.257 192.75 69.14 302.772 27.787 74.708 67.595 156.17 97.919 200.333 29.277 42.674 72.999 75.121 115.728 85.873 15.383 3.86 16.43 3.97 40.359 3.528 18.194-.303 23.928-.937 34.404-3.694zm6039.918 325.765c-109.167-5.045-226.88-36.803-332.491-89.705-137.369-68.808-243.586-176.045-318.046-321.05-68.918-134.254-92.075-275.04-69.332-421.7 27.292-175.88 130.725-342.47 284.551-458.28 59.133-44.495 130.808-83.668 205.433-112.283 122.951-47.14 260.182-61.834 384.042-41.186 58.995 9.842 113.688 26.961 175.191 54.86 27.485 12.46 49.594 21.392 64.508 26.078 15.024 4.714 31.014 4.687 55.383-.11 34.708-6.837 37.85-7.278 52.489-7.333 26.189-.083 46.809 5.927 67.595 19.738 15.989 10.614 24.7 18.856 39.752 37.575 50.835 63.267 81.793 139.05 92.296 225.805 3.418 28.119 4.108 85.21 1.323 107.21-9.097 71.785-42.564 124.77-99.27 157.272-38.402 22.026-87.196 30.048-133.289 21.971-44.521-7.801-75.562-30.682-105.831-78.016-3.253-5.127-12.378-20.896-20.262-35.093-43.998-79.119-68.836-113.936-101.448-142.386a358.267 358.267 0 0 0-171.139-82.895c-13.674-2.481-20.593-2.895-49.622-2.895-36.664 0-46.754 1.296-70.931 9.318-66.327 21.944-115.287 82.371-133.371 164.605-6.616 29.938-7.994 45.21-7.994 87.995-.06 40.083 1.102 57.258 5.871 89.98 9.373 64.04 30.545 129.32 59.877 184.592 67.678 127.555 161.738 197.604 288.797 215.081 21.585 2.95 72.419 4.025 96.21 2.013 60.069-5.045 124.026-22.826 174.309-48.38 26.961-13.73 43.171-24.95 64.921-44.991 31.096-28.67 54.942-40.524 77.106-38.402 20.731 2.013 36.389 9.65 52.737 25.804 31.454 31.068 44.08 71.978 38.153 123.75-6.423 56.072-35.562 124.77-76.692 180.925-12.295 16.761-41.489 46.534-52.737 53.757-15.879 10.2-45.1 19.793-87.168 28.642-27.512 5.79-51.827 14.721-98.333 36.114-99.381 45.734-182.745 66.823-283.339 71.702-29.69 1.434-36.389 1.434-69.249-.083zm-10052.636-4.549c-61.861-9.98-98.057-41.406-131.717-114.405-4.88-10.586-93.178-234.764-196.198-498.226a237875.89 237875.89 0 0 0-194.13-495.553c-9.455-22.963-17.726-39.89-21.943-44.907-4.604-5.486-18.58-14.831-39.78-26.713-23.708-13.232-30.49-18.084-40.635-29.056-10.31-11.137-19.132-27.733-23.515-44.218-3.887-14.611-4.218-45.928-.634-59.546a113.743 113.743 0 0 1 28.946-50.972c43.198-43.75 124.605-67.844 254.392-75.37 30.462-1.764 137.369-1.764 172.683 0 68.974 3.419 121.159 10.145 159.753 20.566 45.376 12.267 76.28 36.278 89.457 69.58 6.506 16.43 7.994 25.28 7.994 48.105 0 31.923-1.35 35.7-25.28 71.896-15.685 23.708-17.78 29.304-18.552 49.18-.69 17.754 1.489 30.325 10.917 62.854 11.578 39.973 30.875 89.898 72.42 187.238 39.283 92.076 54.142 124.688 58.442 128.244 3.308 2.757 11.082 3.942 16.293 2.509 6.395-1.765 18.746-13.674 27.126-26.19 8.353-12.487 24.039-44.659 31.896-65.527 20.786-55.245 48.518-134.915 48.518-139.381 0-6.534-1.93-11.964-19.793-55.135-14.914-36.058-22.716-52.102-31.868-65.583-11.91-17.588-27.43-32.116-42.26-39.614-23.544-11.854-49.733-33.826-61.531-51.607-27.816-41.82-22.358-92.93 13.397-125.625 45.156-41.268 134.97-64.342 278.376-71.537 57.148-2.84 171.856-1.489 226.274 2.73 75.81 5.843 147.127 19.296 178.086 33.604 33.55 15.493 59.656 45.376 66.051 75.59 2.785 13.232 2.509 31.123-.689 43.667-4.824 18.883-12.791 28.89-48.794 61.585-26.162 23.736-32.337 31.151-34.68 41.544-2.674 11.937 1.902 33.274 13.95 65.335 8.214 21.778 11.191 28.477 47.002 105.335 37.16 79.753 63.956 134.97 75.755 155.922 10.365 18.415 21.172 29.993 30.434 32.557 16.624 4.604 28.67-4.934 43.336-34.321 12.681-25.362 20.235-45.735 59.711-161.104 35.562-104.068 40.166-120.829 40.221-147.21 0-14.336-.193-15.604-3.831-22.165-5.735-10.338-12.075-14.61-32.227-21.668-34.983-12.24-61.586-31.482-75.535-54.583-17.367-28.753-18.47-71.786-2.59-101.614 28.67-53.977 113.026-77.85 274.984-77.85 67.789 0 108.23 4.603 146.88 16.705 54.225 16.927 87.14 46.176 98.112 87.169 3.915 14.72 3.942 41.875.055 56.43-7.167 26.603-23.156 47.444-64.535 83.998-28.946 25.555-40.497 40.359-52.599 67.32-10.64 23.763-21.392 51.91-118.54 310.134-85.735 227.734-107.32 283.2-175.742 451.39-65.5 161.02-79.23 193.385-99.63 234.874-37.987 77.189-58.58 103.543-94.362 120.525-37.658 17.89-104.316 18.056-148.865.386-34.817-13.812-64.397-44.108-85.569-87.665-3.942-8.077-54.308-126.645-111.924-263.434-57.588-136.818-107.568-254.42-111.042-261.34-7.305-14.583-9.758-17.202-16.926-18.194-11.385-1.517-21.09 7.388-32.53 29.855-15.465 30.407-22.522 47.361-114.625 276.088-81.462 202.29-82.179 204-98.333 235.426-33.384 65.032-60.924 89.098-114.68 100.235-17.093 3.584-67.762 4.577-85.377 1.737zm9038.705-2.095c-5.238-.607-20.924-2.922-34.79-5.155a1022.063 1022.063 0 0 0-91.248-10.503c-12.02-.827-24.535-1.82-27.788-2.233-3.28-.414-213.786-1.158-467.765-1.654l-461.81-.938-11.495-2.839c-37.271-9.235-60.621-27.126-72.64-55.769-8.657-20.565-9.98-50.063-3.226-71.124 6.947-21.668 19.022-31.758 64.95-54.39 11.715-5.79 24.203-12.516 27.787-14.97 20.152-13.811 30.848-34.128 39.422-74.763 14.28-67.678 23.542-152.723 28.89-265.254 2.206-45.651 2.15-237.824 0-293.097-5.458-138.113-15.162-226.742-31.234-285.323-10.696-38.98-21.42-56.982-38.484-64.7a441.08 441.08 0 0 0-31.179-11.083c-13.48-4.328-26.795-9.566-31.675-12.405a84.742 84.742 0 0 1-37.932-46.23c-3.033-8.767-3.64-13.095-4.135-28.946-.47-15.907-.138-20.345 2.232-29.773 8.822-35.039 32.778-62.303 65.528-74.653 9.925-3.722 32.723-7.719 57.671-10.035 11.854-1.102 120.167-1.847 383.74-2.536 354.158-.965 395.4-1.433 451.885-5.293 48.794-3.363 97.671-11.936 149.664-26.3 32.336-8.958 46.285-9.923 67.816-4.686 11.66 2.812 30.517 12.075 41.406 20.345 26.52 20.125 56.54 63.047 74.708 106.797 17.615 42.37 26.905 85.541 29.607 137.616 3.39 65.17-7.83 108.809-36.775 143.075-20.951 24.756-58.388 37.988-94.86 33.522-40.413-4.962-54.087-15.851-95.024-75.59-22.33-32.53-39.229-50.227-63.764-66.713-41.682-28.036-105.363-40.469-219.657-42.922-84.302-1.792-121.352 2.15-149.692 15.989-16.237 7.884-23.708 17.009-29.552 36.113-6.561 21.392-6.892 27.512-7.636 137.7-.69 108.285-.359 117.41 5.017 134.832 5.045 16.265 11.192 19.71 43.005 23.873 25.087 3.308 78.375 3.474 91.883.276 13.783-3.225 22.77-8.684 28.422-17.202 8.573-12.902 11.413-24.37 17.974-72.42 7.47-54.638 14.638-74.073 34.542-93.536 12.047-11.799 17.753-16.072 28.229-21.062 13.425-6.395 22.963-8.463 39.035-8.463 17.092 0 25.914 2.095 41.848 9.924 21.006 10.283 38.897 29.415 50.779 54.253 18.084 37.712 34.349 114.763 39.614 187.486 1.765 24.398 1.82 93.454.055 118.844-3.887 56.899-12.708 106.272-26.713 149.526-23.708 73.329-47.002 103.377-89.318 115.37-13.288 3.776-40.221 4.134-52.985.716-31.73-8.518-43.722-27.485-52.626-83.254-1.875-11.854-4.576-26.795-5.982-33.163-9.345-42.702-33.908-69.332-73.77-80.029-11.579-3.115-15.328-3.473-37.327-3.556-22.192-.083-25.224.166-32.254 2.812-19.793 7.498-27.567 20.372-33.467 55.3-2.095 12.544-2.426 22-2.37 68.147.054 55.742 1.874 90.504 7.305 139.602 7.223 65.059 11.33 80.827 23.57 90.531 21.971 17.395 61.889 23.212 159.616 23.24 66.63 0 98.636-2.261 140.263-9.98 64.066-11.854 102.716-30.407 138.94-66.713 23.928-23.929 40.028-47.637 64.066-94.391 31.84-61.806 47.334-82.068 72.144-94.28 15.962-7.83 28.615-10.614 48.381-10.67 19.739-.027 27.458 1.737 44.742 10.2 10.007 4.908 14.446 8.133 23.24 16.872 39.642 39.311 52.212 93.812 39.145 169.595-15.134 87.995-65.527 210.532-114.404 278.155-11.441 15.824-29.36 34.046-39.064 39.725-14.83 8.684-36.444 11.44-64.48 8.16zm4710.395-.551a1086.709 1086.709 0 0 1-35.01-5.155 967.176 967.176 0 0 0-88.051-10.007 617.787 617.787 0 0 1-27.126-2.206c-2.922-.413-213.097-1.158-467.103-1.654-437.688-.854-462.334-1.02-471.734-3.308-26.465-6.313-41.296-13.977-56.238-29.111-11.468-11.579-17.119-20.869-21.861-35.838-3.997-12.57-5.1-40.772-2.15-54.583 5.596-26.383 18.084-37.823 68.918-63.102 24.094-11.992 27.21-13.922 35.893-22.495 15.576-15.355 22.606-32.089 31.041-73.909 11.248-55.769 19.573-124.853 24.37-202.758 4.163-67.265 5.045-114.68 4.3-230.244-.689-106.052-1.323-131-4.907-193.192-8.077-140.319-26.464-235.04-51.22-263.986-6.175-7.168-14.997-11.44-42.729-20.538-26.245-8.628-34.294-12.323-45.79-20.951-25.114-18.911-36.747-54.115-30.241-91.524 7.057-40.414 38.18-74.074 77.712-83.97 13.591-3.391 39.504-6.286 71.124-7.912 15.769-.827 143.737-1.379 329.486-1.379 293.842-.055 405.049-1.02 460.928-3.997 61.255-3.253 106.686-10.613 170.918-27.705 28.119-7.499 41.351-9.098 56.155-6.782 38.016 5.927 66.934 27.843 97.479 73.77 33.549 50.477 53.591 111.98 58.829 180.402 1.929 25.141.937 62.413-2.096 79.394-9.565 53.757-38.429 92.765-77.85 105.253-15.576 4.962-33.522 6.616-50.531 4.686-39.918-4.466-54.666-15.906-93.233-72.227-16.348-23.9-20.124-28.67-33.026-42.178a233.965 233.965 0 0 0-36.527-30.186c-44.218-28.284-119.229-40.745-246.26-40.855-50.834-.028-70.076 1.489-94.391 7.498-42.867 10.614-56.761 28.726-60.814 79.367-2.067 26.024-3.253 191.842-1.488 210.202 2.563 26.768 7.277 39.973 15.768 44.273 12.571 6.368 41.021 9.731 83.585 9.924 25.527.11 32.695-.275 40.028-2.15 29.387-7.553 37.822-21.585 44.659-74.432 6.037-46.782 10.806-68.836 18.002-83.53 10.861-22.136 34.321-42.922 57.423-50.889 11.991-4.135 35.562-5.072 49.538-1.93 28.45 6.313 55.135 28.836 70.518 59.574 13.425 26.74 27.843 83.253 35.286 138.278 12.323 90.807 8.822 195.729-9.29 276.53-10.09 44.962-27.898 92.433-43.557 115.975-23.625 35.48-62.054 52.213-103.323 45.018-38.704-6.754-51.44-25.886-61.42-92.158-5.679-37.712-12.984-57.644-27.512-74.956-8.574-10.2-23.791-21.172-35.424-25.555-19.297-7.278-26.244-8.38-52.792-8.546-23.625-.083-25.638.083-33.026 3.06-19.848 7.995-28.284 23.267-33.081 60.097-6.588 50.283-1.047 171.222 11.358 249.017 3.915 24.397 6.561 32.144 13.867 40.248 17.119 19.022 53.205 25.914 144.729 27.485 129.319 2.206 215.963-14.39 267.873-51.386 6.478-4.603 17.974-14.307 25.555-21.502 26.244-25.087 43.005-49.07 67.843-97.313 22.054-42.757 28.67-53.73 43.364-71.869 18.304-22.605 44.604-34.266 77.657-34.321 17.781-.055 29.304 2.481 43.722 9.51 29.222 14.308 53.729 48.106 63.681 87.83 4.19 16.706 5.706 51.883 3.225 75.205-6.423 60.703-34.294 147.844-71.096 222.303-27.678 56.045-56.789 98.223-80.139 116.197-5.706 4.383-19.573 10.2-28.118 11.772-9.952 1.847-27.981 1.626-45.68-.552zm-6993.31-.745c-65.06-3.308-120.525-10.53-163.007-21.199-28.505-7.168-44.824-12.902-65.252-23.019-45.376-22.44-67.788-51.468-70.297-91.11-1.378-20.924 5.486-43.557 17.312-57.34 8.657-10.09 33.33-26.272 66.383-43.557 28.505-14.942 37.74-22.412 44.77-36.251 5.513-10.862 7.36-26.107 10.172-84.688 2.15-44.88 3.198-702.997 1.185-734.396-1.599-24.453-4.107-43.695-7.222-55.246-5.597-20.813-22.385-33.218-61.559-45.569a879.953 879.953 0 0 1-27.87-9.29c-38.87-14.06-64.453-35.341-75.838-63.24-5.045-12.267-6.148-18.58-6.175-35.176-.055-27.898 7.443-46.533 26.41-65.39 16.099-15.989 33.494-25.444 59.545-32.309 28.78-7.526 36.416-8.104 99.932-7.388 32.006.359 122.813.607 201.794.552 123.777-.138 147.127-.469 169.374-2.426 14.197-1.24 68.092-6.065 119.753-10.724 124.743-11.22 132.682-11.689 185.694-10.834 48.078.772 69.112 2.536 107.403 9.015 114.267 19.27 218.417 68.946 289.596 138.14 54.694 53.15 87.968 111.042 106.548 185.253 19.27 77.051 17.781 171.745-3.859 247.005-13.867 48.188-40.414 99.325-71.675 138.057-50.173 62.275-122.786 114.791-203.503 147.21-99.657 40.056-195.647 50.201-353.305 37.3-45.927-3.75-69.36-4.467-73.412-2.289-7.112 3.832-7.167 5.431-2.73 107.513 4.136 94.97 4.963 106.08 9.319 123.117 6.56 25.637 20.703 39.972 62.192 62.908 37.767 20.897 55.824 35.838 68.34 56.596 6.809 11.33 9.73 22.247 9.73 36.5 0 38.539-23.487 70.021-69.965 93.867-53.013 27.181-129.016 42.785-236.364 48.519-27.732 1.488-133.564 1.406-163.42-.11zm438.653-775.913c23.928-5.403 45.486-15.52 62.854-29.497 29.938-24.012 48.739-59.325 56.871-106.852 8.932-52.102 5.79-113.605-8.05-155.894-8.986-27.512-21.502-48.85-39.834-67.816a165.184 165.184 0 0 0-91.028-48.408c-13.315-2.398-57.478-2.37-68.147 0-11.66 2.646-21.64 7.719-24.59 12.598-2.481 4.053-2.536 8.657-2.205 188.727l.33 184.592 2.895 6.313c2.426 5.237 3.997 6.781 9.263 9.042 7.415 3.198 22.798 7.305 34.156 9.07 11.964 1.847 56.43.634 67.485-1.875zm3931.339 776.547c-92.903-3.914-162.042-12.295-196.336-23.79-43.474-14.611-74.873-47.913-82.096-87.113-1.984-10.834-1.764-31.427.442-41.875 6.12-28.836 26.382-55.273 60.372-78.733 21.641-14.914 31.372-25.086 38.815-40.441 19.573-40.442 30.683-120.25 36.803-264.483 2.15-50.669 2.122-263.49-.06-320.885-5.872-155.232-16.348-241.38-34.019-279.616-3.666-7.94-6.809-12.13-15.52-20.648a147.9 147.9 0 0 0-20.565-16.651c-34.901-21.585-47.747-32.447-58.747-49.622-13.094-20.4-17.422-37.574-16.54-65.5.496-16.981 1.047-20.62 4.686-31.758 5.514-16.76 11.992-27.457 24.673-40.744 25.721-27.016 65.528-44.522 129.567-57.092 68.423-13.426 151.208-19.877 254.861-19.904 106.879-.028 179.189 8.38 232.807 27.126 36.886 12.874 60.759 32.061 74.874 60.152 14.335 28.56 16.595 71.345 5.237 99.602-6.395 15.961-16.843 27.236-57.45 62.11-7.884 6.726-10.889 10.475-14.914 18.331-17.919 35.011-30.49 104.757-28.395 157.41.993 23.874 3.419 37.492 8.491 47.582 4.797 9.51 9.29 12.709 17.313 12.35 20.951-.882 35.617-14.28 97.864-89.4 51.799-62.441 78.126-100.126 88.988-127.225 7.222-18.029 5.596-27.154-10.917-61.64-13.287-27.761-15.989-37.685-15.989-58.223 0-51.937 27.65-90.008 81.6-112.53 43.225-18.03 104.866-28.395 196.004-33.026 34.266-1.737 146.438-1.737 179.464 0 53.15 2.784 97.975 7.994 128.851 15.024 68.449 15.548 106.437 49.18 114.57 101.503 1.985 12.681.827 41.71-2.095 52.186-9.401 33.99-34.708 63.763-63.791 75.038-19.242 7.499-37.327 9.649-97.782 11.606-40.883 1.378-59.325 3.308-75.259 8.077-17.285 5.128-36.279 17.092-59.215 37.3-14.666 12.9-118.954 113.026-134.474 129.07-29.222 30.324-45.183 59.408-45.183 82.564 0 8.85 3.556 25.225 7.526 34.79 4.218 10.118 19.49 33.082 33.908 50.945 9.235 11.468 313 363.698 401.078 465.09 50.421 58.03 66.493 72.586 96.211 87.031l34.239 16.623c26.189 12.681 43.281 23.846 56.982 37.271 25.169 24.59 36.113 52.902 36.085 93.316 0 14.583-.634 21.062-2.922 30.435-11.413 46.782-46.534 74.625-108.009 85.597l-17.202 3.06H12619.7l-11.11-2.95c-34.597-9.235-49.952-23.846-111.373-105.832a2741.224 2741.224 0 0 0-146.024-178.94c-77.796-88.023-132.407-142.8-152.559-153-14.417-7.305-29.552-5.375-39.752 5.073-11.578 11.854-18.057 33.55-20.042 67.127-2.536 43.033 3.309 85.239 15.107 108.505 7.554 14.97 13.784 21.145 37.492 37.437 27.843 19.16 37.685 27.402 47.306 39.697 18.001 23.019 25.913 49.263 23.074 76.72-5.21 50.366-46.093 86.48-117.823 104.04-38.953 9.51-81.986 15.162-154.158 20.124-18.663 1.296-190.132 2.647-213.041 1.71zm-5547.012-9.317c-218.031-7.444-352.505-10.228-451.224-9.29-77.272.716-87.251 1.102-158.127 6.12-58.112 4.134-66.99 4.41-86.01 2.756-49.512-4.218-86.287-19.849-113.44-48.133-21.365-22.274-30.794-46.092-30.794-77.795 0-33.053 11.717-57.974 35.094-74.68 10.806-7.72 29.718-16.568 46.286-21.75 34.183-10.67 45.486-16.652 53.205-28.23 7.415-11.027 14.5-37.492 19.462-72.337 6.81-47.747 12.847-185.64 19.325-440.638 2.343-91.855 3.28-325.82 1.379-348.094-1.765-20.896-4.218-36.61-7.306-46.948-5.568-18.635-22.164-32.254-54.418-44.659-53.48-20.565-79.946-54.528-79.946-102.689 0-41.489 21.007-72.226 64.177-93.784 22.11-11.055 49.043-18.36 81.38-22.054 21.557-2.481 91.744-2.757 146.879-.607 89.897 3.53 250.478.965 394.325-6.34 52.57-2.647 169.319-3.033 209.071-.607 125.432 7.526 214.916 25.087 291.747 57.286 140.015 58.636 246.783 162.73 311.54 303.683 37.491 81.544 58.36 165.239 67.87 271.732 2.757 30.793 2.316 132.682-.661 160.112-11.165 102.468-37.795 197.245-79.036 281.188-30.793 62.66-65.5 111.18-115.094 160.828-57.285 57.34-120.442 99.905-197.824 133.316-86.976 37.575-188.01 59.656-283.173 61.917-15.3.358-29.883.827-32.42.992-2.563.193-26.078-.386-52.267-1.295zm-31.675-233.442c101.834-9.924 171.58-66.96 210.89-172.462 17.423-46.699 29.112-107.099 34.736-179.436 2.26-29.084 2.233-136.817-.027-170.036-7.058-103.378-21.972-180.732-47.389-246.04-18.057-46.368-37.96-79.063-65.197-107.072a222.166 222.166 0 0 0-90.532-57.616c-32.612-11.247-59.187-15.3-100.125-15.327-27.181 0-30.71.276-40.359 3.032-23.652 6.837-32.805 18.691-36.389 47.003-1.93 15.713-1.819 801.992.166 820.242 3.86 35.837 15.052 56.127 37.05 67.127 21.034 10.53 57.23 14.472 97.203 10.585z" style="fill:#000;stroke-width:1.32324px"/></svg>