<?xml version="1.0" encoding="UTF-8" standalone="no"?>
<svg
   width="29.197756"
   height="48.696568"
   version="1.1"
   id="svg4"
   sodipodi:docname="logo.svg"
   inkscape:version="1.1.1 (3bf5ae0d25, 2021-09-20, custom)"
   xmlns:inkscape="http://www.inkscape.org/namespaces/inkscape"
   xmlns:sodipodi="http://sodipodi.sourceforge.net/DTD/sodipodi-0.dtd"
   xmlns="http://www.w3.org/2000/svg"
   xmlns:svg="http://www.w3.org/2000/svg">
  <defs
     id="defs8" />
  <sodipodi:namedview
     id="namedview6"
     pagecolor="#ffffff"
     bordercolor="#666666"
     borderopacity="1.0"
     inkscape:pageshadow="2"
     inkscape:pageopacity="0.0"
     inkscape:pagecheckerboard="0"
     showgrid="false"
     inkscape:zoom="13.242182"
     inkscape:cx="9.9303876"
     inkscape:cy="24.240718"
     inkscape:window-width="1920"
     inkscape:window-height="1002"
     inkscape:window-x="1200"
     inkscape:window-y="384"
     inkscape:window-maximized="1"
     inkscape:current-layer="layer1" />
  <g
     inkscape:groupmode="layer"
     id="layer1"
     inkscape:label="Layer 1"
     transform="translate(4.1731054,4.7496244)">
    <path
       d="m 11.401149,-4.603338 c -0.679948,1.4272431 -0.691052,2.6100795 -1.8260598,3.2052187 l -0.031087,0.019457 c 0.7663558,0.3545117 1.5206548,0.91723161 2.2166598,1.74344333 0.748131,0.88651917 1.275781,1.95748637 1.886646,3.19465907 0.911845,1.8414001 1.940938,3.9291293 4.061834,6.2258331 4.566891,4.9483598 5.220492,10.4526448 5.906909,16.2818038 0.315096,2.668788 0.643476,5.427822 1.37786,8.156048 a 0.857,0.857 0 0 1 -0.323708,0.92165 0.86,0.86 0 0 1 -0.976494,0.02953 c -0.324235,-0.210642 -0.775191,-0.555755 -1.313885,-1.020335 0.408948,3.403042 0.935988,6.207806 1.458068,8.757336 a 0.866,0.866 0 0 1 -1.268684,0.92727 C 18.637982,41.64034 15.956745,37.129177 15.98085,32.793499 14.679004,30.687468 13.074766,29.14346 11.379418,27.510213 10.4663,26.629297 9.539254,25.734453 8.6525549,24.738377 8.4095979,24.741828 8.00876,24.649579 7.7568994,24.610384 l -1.9453857,-0.302795 0.616601,0.889968 a 0.864,0.864 0 0 1 -1.41967,0.983202 L 3.347757,23.757398 1.0893719,21.465363 a 0.863,0.863 0 1 1 1.2289755,-1.20878 L 4.35172,22.334096 7.0684108,22.759143 A 18.97,18.97 0 0 1 5.5241004,20.159233 C 3.3761655,15.778297 2.9366846,11.432362 4.3412377,8.5435563 4.437009,8.3385055 4.4344934,8.2066166 4.4784326,8.2122158 4.3466857,8.1343201 4.1526918,8.0589385 4.0100321,7.9916688 1.2714366,7.231121 -1.6866363,10.025332 -3.4851589,11.678181 -3.9516074,12.106166 -4.4237456,11.678129 -4.0206228,11.166288 -2.6145387,9.3901022 0.02451461,5.1146781 1.398272,2.4466452 1.5916822,2.0776107 1.672229,1.6909168 1.9011772,1.2749988 c 0.722883,-4.8476686 6.9905915,-4.5777751 9.3512798,-6.0086432 0.08874,-0.053418 0.191911,0.03654 0.148692,0.1303064 M 3.2708286,4.8442274 c 0.5018764,1.1376661 1.2090003,1.4635325 1.726007,1.7018121 0.28295,0.131165 0.5541254,0.254002 0.75401,0.5006883 0.4765928,0.5816797 0.5346211,1.4122125 0.1533307,2.2370826 -1.1818522,2.4260056 -0.7458292,6.2086306 1.1709132,10.1138526 1.4519886,2.964347 3.4203825,4.858997 5.5031485,6.867155 1.754582,1.689749 3.567822,3.437294 5.011183,5.849962 a 0.853,0.853 0 0 1 0.120052,0.468106 c -0.0782,2.637924 1.165376,6.19136 4.02333,8.588132 a 96.586,96.586 0 0 1 -1.28856,-8.837536 c -3.444262,-3.483748 -8.141053,-9.457852 -9.0672,-15.442301 -0.234086,-1.513882 0.04099,-3.52575 0.717571,-4.783483 0.129515,-0.242673 0.290119,-0.365519 0.40205,-0.333572 0.09994,0.02584 0.226375,0.167926 0.217262,0.392144 -0.05884,1.379056 0.112633,2.741306 0.390805,4.431086 0.904024,5.484033 5.376163,11.314191 8.670727,14.64552 l 0.201248,0.200091 0.779072,0.752475 C 22.365023,30.187896 22.131071,28.203608 21.900566,26.26728 21.247827,20.726236 20.627043,15.491113 16.439673,10.952843 14.149622,8.4726329 13.012113,6.1726778 12.098329,4.323452 11.536646,3.1862898 11.051286,2.2029844 10.43993,1.4770696 8.6600675,-0.62938248 6.4411511,-0.3898254 4.9883098,0.51827836 3.5785456,1.3990988 2.536179,3.1682412 3.2704697,4.8432941 Z M 6.1702215,4.3932893 A 1.1770081,1.1770081 0 1 1 4.6805639,2.5705681 1.178,1.178 0 1 1 6.1705805,4.3942226 Z"
       id="path2" />
  </g>
</svg>
